<svg width="24" height="24" viewBox="0 0 24 24" fill="none" xmlns="http://www.w3.org/2000/svg">
<path d="M0.998143 22.9619V5.51074H22.9619V22.9619H0.998143ZM22.9619 0.998133V4.5122H0.998143V0.998133H22.9619ZM23.4811 -1.90735e-06H0.518876C0.239239 -1.90735e-06 0 0.23963 0 0.518869V23.4811C0 23.7608 0.239239 24 0.518876 24H23.4811C23.7608 24 24 23.7608 24 23.4811V0.518869C23.9604 0.23963 23.7208 -1.90735e-06 23.4811 -1.90735e-06Z" fill="#1623A4"/>
<path d="M14.9752 2.51562H15.4945V2.99488H14.9752V2.51562ZM14.4959 3.99341H16.0133C16.2929 3.99341 16.5326 3.75378 16.5326 3.47414V1.95674C16.5326 1.6771 16.2929 1.43786 16.0133 1.43786H14.4959C14.2163 1.43786 13.9771 1.6771 13.9771 1.95674V3.47414C13.9771 3.75378 14.2163 3.99341 14.4959 3.99341Z" fill="#1623A4"/>
<path d="M17.9704 2.51562H18.4893V2.99488H17.9704V2.51562ZM17.4912 3.99341H18.9686C19.2478 3.99341 19.4878 3.75378 19.4878 3.47414V1.95674C19.4878 1.6771 19.2478 1.43786 18.9686 1.43786H17.4512C17.1715 1.43786 16.9319 1.6771 16.9319 1.95674V3.47414C16.9719 3.75378 17.2115 3.99341 17.4912 3.99341Z" fill="#1623A4"/>
<path d="M20.9652 2.51562H21.4844V2.99488H20.9652V2.51562ZM20.4859 3.99341H22.0033C22.2833 3.99341 22.5226 3.75378 22.5226 3.47414V1.95674C22.5226 1.6771 22.2833 1.43786 22.0033 1.43786H20.4859C20.2063 1.43786 19.967 1.6771 19.967 1.95674V3.47414C19.967 3.75378 20.2063 3.99341 20.4859 3.99341Z" fill="#1623A4"/>
<path d="M16.4125 16.0534C16.4125 18.2095 13.6973 19.3678 12.4592 19.8073V10.0233C13.4177 11.1414 14.9351 11.4607 16.4125 11.2214V16.0534ZM11.5011 9.82364V11.6607H7.54733V11.1814C8.94512 11.301 10.3829 10.8622 11.5011 9.82364ZM11.5011 18.8885V19.8073C10.9814 19.6474 10.2229 19.3281 9.54401 18.8885H11.5011ZM11.5011 13.1781H7.54733V12.6188H11.5011V13.1781ZM7.54733 14.7751V14.1766H11.5011V14.7355H7.54733V14.7751ZM7.54733 15.7736H11.5011V16.3329H7.54733C7.50733 16.0932 7.54733 15.9737 7.54733 15.7736ZM7.86697 17.3315H11.4606V17.8903C8.1066 17.8903 8.30583 17.8903 8.26622 17.8903C8.14621 17.6907 7.98659 17.5306 7.86697 17.3315ZM16.7718 10.1033C16.7718 10.1033 16.2129 10.2629 15.4944 10.2629C14.2562 10.2629 13.3777 9.74363 12.8588 8.7851C12.6592 8.42585 12.3796 8.14622 12.2196 8.0666C12.0199 7.94659 11.7403 7.9866 11.5807 8.18662L11.1414 8.70549C10.1033 9.94326 8.90512 10.2229 8.0266 10.2229C7.50733 10.2229 7.14808 10.1033 7.14808 10.1033C6.82844 10.0233 6.50879 10.2629 6.50879 10.5825V16.0534C6.50879 19.6077 11.6207 20.9255 11.8203 20.9651C11.9003 20.9651 11.9799 20.9651 12.0599 20.9651C12.2595 20.9255 17.371 19.6077 17.371 16.0534V10.5825C17.411 10.2229 17.0914 9.98326 16.7718 10.1033Z" fill="#1623A4"/>
</svg>
