<svg width="24" height="24" viewBox="0 0 24 24" fill="none" xmlns="http://www.w3.org/2000/svg">
<path d="M0.998143 22.9619V5.5108H22.9619V22.9619H0.998143ZM22.9619 0.998194V4.51226H0.998143V0.998194H22.9619ZM23.4811 5.91278e-05H0.518876C0.239239 5.91278e-05 0 0.239691 0 0.51893V23.4812C0 23.7609 0.239239 24.0001 0.518876 24.0001H23.4811C23.7608 24.0001 24 23.7609 24 23.4812V0.51893C23.9604 0.239691 23.7208 5.91278e-05 23.4811 5.91278e-05Z" fill="#1888CD"/>
<path d="M14.9752 2.51556H15.4945V2.99482H14.9752V2.51556ZM14.4959 3.99335H16.0133C16.2929 3.99335 16.5326 3.75372 16.5326 3.47408V1.95667C16.5326 1.67704 16.2929 1.4378 16.0133 1.4378H14.4959C14.2163 1.4378 13.9771 1.67704 13.9771 1.95667V3.47408C13.9771 3.75372 14.2163 3.99335 14.4959 3.99335Z" fill="#1888CD"/>
<path d="M17.9707 2.51556H18.4895V2.99482H17.9707V2.51556ZM17.4914 3.99335H18.9688C19.2481 3.99335 19.4881 3.75372 19.4881 3.47408V1.95667C19.4881 1.67704 19.2481 1.4378 18.9688 1.4378H17.4514C17.1718 1.4378 16.9321 1.67704 16.9321 1.95667V3.47408C16.9721 3.75372 17.2118 3.99335 17.4914 3.99335Z" fill="#1888CD"/>
<path d="M20.9654 2.51556H21.4847V2.99482H20.9654V2.51556ZM20.4862 3.99335H22.0035C22.2836 3.99335 22.5228 3.75372 22.5228 3.47408V1.95667C22.5228 1.67704 22.2836 1.4378 22.0035 1.4378H20.4862C20.2065 1.4378 19.9673 1.67704 19.9673 1.95667V3.47408C19.9673 3.75372 20.2065 3.99335 20.4862 3.99335Z" fill="#1888CD"/>
<path d="M16.4125 16.0534C16.4125 18.2096 13.6973 19.3678 12.4592 19.8074V10.0233C13.4177 11.1415 14.9351 11.4607 16.4125 11.2215V16.0534ZM11.5011 9.8237V11.6607H7.54733V11.1815C8.94512 11.3011 10.3829 10.8622 11.5011 9.8237ZM11.5011 18.8885V19.8074C10.9814 19.6474 10.2229 19.3282 9.54401 18.8885H11.5011ZM11.5011 13.1781H7.54733V12.6189H11.5011V13.1781ZM7.54733 14.7752V14.1767H11.5011V14.7356H7.54733V14.7752ZM7.54733 15.7737H11.5011V16.333H7.54733C7.50733 16.0933 7.54733 15.9737 7.54733 15.7737ZM7.86697 17.3315H11.4606V17.8904C8.1066 17.8904 8.30583 17.8904 8.26622 17.8904C8.14621 17.6908 7.98659 17.5307 7.86697 17.3315ZM16.7718 10.1033C16.7718 10.1033 16.2129 10.263 15.4944 10.263C14.2562 10.263 13.3777 9.74369 12.8588 8.78516C12.6592 8.42591 12.3796 8.14628 12.2196 8.06666C12.0199 7.94665 11.7403 7.98666 11.5807 8.18668L11.1414 8.70555C10.1033 9.94332 8.90512 10.223 8.0266 10.223C7.50733 10.223 7.14808 10.1033 7.14808 10.1033C6.82844 10.0233 6.50879 10.263 6.50879 10.5826V16.0534C6.50879 19.6078 11.6207 20.9255 11.8203 20.9651C11.9003 20.9651 11.9799 20.9651 12.0599 20.9651C12.2595 20.9255 17.371 19.6078 17.371 16.0534V10.5826C17.411 10.223 17.0914 9.98332 16.7718 10.1033Z" fill="#1888CD"/>
</svg>
