<svg width="56" height="40" viewBox="0 0 56 40" fill="none" xmlns="http://www.w3.org/2000/svg">
<path d="M24.1646 7.6935L23.4004 11.0754C23.329 11.3905 23.4532 11.7169 23.715 11.9071C23.9773 12.0966 24.3279 12.1128 24.6065 11.9483L27.6003 10.1797L30.5936 11.9483C30.7214 12.0243 30.8649 12.0613 31.0078 12.0613C31.1759 12.0613 31.3434 12.0093 31.4851 11.9071C31.7474 11.7175 31.8711 11.3905 31.7996 11.0754L31.0354 7.6935L33.6492 5.40465C33.8924 5.19179 33.9854 4.85456 33.8852 4.54782C33.7849 4.24108 33.5112 4.02284 33.1882 3.99294L29.7231 3.67186L28.3453 0.488505C28.2169 0.191934 27.9239 0 27.5997 0C27.2755 0 26.9826 0.191934 26.8541 0.488505L25.4764 3.67186L22.0106 3.99354C21.6877 4.02344 21.4139 4.24168 21.3137 4.54842C21.2134 4.85515 21.3065 5.19238 21.5496 5.40524L24.1646 7.6935ZM26.1073 5.23723C26.4027 5.20972 26.6602 5.02377 26.7773 4.75231L27.6003 2.85091L28.4234 4.75231C28.541 5.02377 28.798 5.20972 29.0933 5.23723L31.1633 5.42916L29.6018 6.79602C29.3791 6.99154 29.2806 7.2923 29.3461 7.5805L29.8023 9.60029L28.0145 8.54375C27.8867 8.46842 27.7438 8.43075 27.6003 8.43075C27.4568 8.43075 27.314 8.46842 27.1861 8.54375L25.3983 9.60029L25.8546 7.5805C25.92 7.2917 25.8215 6.99094 25.5988 6.79602L24.0374 5.42916L26.1073 5.23723ZM32.2523 26.1497C33.4793 24.9616 34.2424 23.3095 34.2424 21.4847C34.2424 17.8762 31.2629 14.9404 27.6003 14.9404C23.9377 14.9404 20.9583 17.8762 20.9583 21.4847C20.9583 23.3095 21.7213 24.9616 22.9484 26.1497C21.5352 26.6878 20.2625 27.5769 19.2659 28.7441C17.8744 30.3734 17.1078 32.4422 17.1078 34.5708V38.6941C17.1078 39.414 17.6961 40 18.4189 40H36.783C37.5058 40 38.0941 39.414 38.0941 38.6941V34.5708C38.0941 32.4422 37.3275 30.3728 35.9359 28.7441C34.9381 27.5769 33.6654 26.6878 32.2523 26.1497ZM22.5816 21.4847C22.5816 18.7677 24.8328 16.5571 27.6003 16.5571C30.3678 16.5571 32.6191 18.7677 32.6191 21.4847C32.6191 24.2016 30.3678 26.4116 27.6003 26.4116C24.8328 26.4116 22.5816 24.201 22.5816 21.4847ZM36.4696 38.3832H18.7311V34.5708C18.7311 31.0544 21.1966 28.0529 24.6299 27.3348C25.5244 27.7772 26.5329 28.0283 27.6003 28.0283C28.6677 28.0283 29.6763 27.7772 30.5708 27.3348C34.004 28.0529 36.4696 31.0544 36.4696 34.5708V38.3832ZM17.4277 17.9509L16.6635 14.569L19.2773 12.2802C19.5205 12.0673 19.6135 11.7301 19.5133 11.4234C19.413 11.1166 19.1393 10.8984 18.8163 10.8685L15.3512 10.5474L13.9734 7.36405C13.845 7.06748 13.552 6.87554 13.2278 6.87554C12.9036 6.87554 12.6107 7.06748 12.4822 7.36405L11.1045 10.5468L7.63876 10.8685C7.31578 10.8984 7.04203 11.1166 6.94178 11.424C6.84152 11.7307 6.93457 12.0679 7.1777 12.2808L9.79154 14.5696L9.02732 17.9515C8.95588 18.2666 9.08015 18.5931 9.34189 18.7832C9.60424 18.9728 9.95483 18.9889 10.2334 18.8245L13.2266 17.0558L16.2199 18.8245C16.3477 18.9004 16.4912 18.9375 16.6341 18.9375C16.8022 18.9375 16.9697 18.8855 17.1114 18.7832C17.3749 18.5925 17.4986 18.266 17.4277 17.9509ZM15.2299 13.6716C15.0072 13.8671 14.9088 14.1678 14.9742 14.456L15.4304 16.4758L13.6427 15.4193C13.5148 15.344 13.3719 15.3063 13.2284 15.3063C13.0849 15.3063 12.9421 15.344 12.8142 15.4193L11.0264 16.4758L11.4827 14.456C11.5481 14.1672 11.4497 13.8665 11.2269 13.6716L9.66547 12.3047L11.7354 12.1128C12.0308 12.0853 12.2883 11.8993 12.4054 11.6279L13.2284 9.72645L14.0515 11.6279C14.1691 11.8993 14.4261 12.0853 14.7214 12.1128L16.7914 12.3047L15.2299 13.6716ZM11.9143 25.1822L8.4492 24.8611L7.07145 21.6778C6.94298 21.3812 6.65002 21.1893 6.32584 21.1893C6.00166 21.1893 5.7087 21.3812 5.58023 21.6778L4.20247 24.8605L0.736768 25.1822C0.41379 25.2121 0.14004 25.4304 0.0397853 25.7377C-0.0604698 26.0444 0.0325813 26.3817 0.275715 26.5945L2.88955 28.8834L2.12533 32.2652C2.05389 32.5804 2.17816 32.9068 2.4399 33.097C2.70225 33.2865 3.05284 33.3026 3.33139 33.1382L6.32464 31.3696L9.31788 33.1382C9.44575 33.2142 9.58923 33.2512 9.73211 33.2512C9.9002 33.2512 10.0677 33.1992 10.2094 33.097C10.4717 32.9074 10.5954 32.5804 10.5239 32.2652L9.75972 28.8834L12.3736 26.5945C12.6167 26.3817 12.7097 26.0444 12.6095 25.7377C12.511 25.4304 12.2367 25.2121 11.9143 25.1822ZM8.32734 27.9859C8.10461 28.1814 8.00616 28.4822 8.0716 28.7704L8.52785 30.7902L6.74006 29.7336C6.61219 29.6583 6.46932 29.6206 6.32584 29.6206C6.18236 29.6206 6.03948 29.6583 5.91161 29.7336L4.12383 30.7902L4.58008 28.7704C4.64551 28.4816 4.54706 28.1808 4.32434 27.9859L2.76288 26.619L4.83282 26.4271C5.12818 26.3996 5.38572 26.2136 5.50278 25.9422L6.32584 24.0408L7.14889 25.9422C7.26655 26.2136 7.52349 26.3996 7.81886 26.4271L9.88879 26.619L8.32734 27.9859ZM45.3791 18.9369C45.5472 18.9369 45.7147 18.8849 45.8563 18.7826C46.1187 18.5931 46.2424 18.266 46.1709 17.9509L45.4067 14.569L48.0205 12.2802C48.2637 12.0673 48.3567 11.7301 48.2565 11.4234C48.1562 11.1166 47.8825 10.8984 47.5595 10.8685L44.0944 10.5474L42.7166 7.36405C42.5882 7.06748 42.2952 6.87554 41.971 6.87554C41.6468 6.87554 41.3539 7.06748 41.2254 7.36405L39.8476 10.5468L36.3819 10.8685C36.059 10.8984 35.7852 11.1166 35.685 11.4234C35.5847 11.7301 35.6778 12.0673 35.9209 12.2802L38.5347 14.569L37.7705 17.9509C37.6991 18.266 37.8233 18.5925 38.0851 18.7826C38.3474 18.9722 38.6974 18.9883 38.9766 18.8239L41.9698 17.0552L44.9631 18.8239C45.0933 18.8992 45.2362 18.9369 45.3791 18.9369ZM42.3858 15.4193C42.258 15.344 42.1151 15.3063 41.9716 15.3063C41.8281 15.3063 41.6853 15.344 41.5574 15.4193L39.7696 16.4758L40.2258 14.456C40.2913 14.1672 40.1928 13.8665 39.9701 13.6716L38.4087 12.3047L40.4786 12.1128C40.774 12.0853 41.0315 11.8993 41.1486 11.6279L41.9716 9.72645L42.7947 11.6279C42.9123 11.8993 43.1693 12.0853 43.4646 12.1128L45.5346 12.3047L43.9731 13.6716C43.7504 13.8671 43.6519 14.1678 43.7174 14.456L44.1736 16.4758L42.3858 15.4193ZM55.1603 25.7377C55.06 25.431 54.7862 25.2127 54.4633 25.1828L50.9982 24.8617L49.6204 21.6784C49.4919 21.3818 49.199 21.1899 48.8748 21.1899C48.5506 21.1899 48.2577 21.3818 48.1292 21.6784L46.7514 24.8611L43.2857 25.1828C42.9628 25.2127 42.689 25.431 42.5888 25.7383C42.4885 26.045 42.5815 26.3823 42.8247 26.5951L45.4385 28.884L44.6743 32.2658C44.6029 32.5809 44.7271 32.9074 44.9889 33.0976C45.2512 33.2871 45.6012 33.3032 45.8804 33.1388L48.8736 31.3701L51.8668 33.1388C51.9947 33.2147 52.1382 33.2518 52.2811 33.2518C52.4492 33.2518 52.6167 33.1998 52.7583 33.0976C53.0207 32.908 53.1443 32.5809 53.0729 32.2658L52.3087 28.884L54.9225 26.5951C55.1675 26.3811 55.2605 26.0444 55.1603 25.7377ZM50.8763 27.9853C50.6536 28.1808 50.5551 28.4816 50.6206 28.7698L51.0768 30.7896L49.289 29.733C49.1612 29.6577 49.0183 29.62 48.8748 29.62C48.7313 29.62 48.5884 29.6577 48.4606 29.733L46.6728 30.7896L47.129 28.7698C47.1945 28.481 47.096 28.1802 46.8733 27.9853L45.3118 26.6184L47.3818 26.4265C47.6771 26.399 47.9347 26.213 48.0518 25.9416L48.8748 24.0402L49.6979 25.9416C49.8155 26.213 50.0725 26.399 50.3678 26.4265L52.4378 26.6184L50.8763 27.9853Z" fill="#D80758"/>
</svg>
