<svg width="25" height="29" viewBox="0 0 25 29" fill="none" xmlns="http://www.w3.org/2000/svg">
<path d="M23.3441 18.12C23.3441 20.9676 21.52 23.4289 17.969 25.5039C15.5695 26.8551 13.1694 27.5789 12.5457 27.7718C11.9219 27.6273 9.52234 26.9035 7.1228 25.5039C3.57133 23.4289 1.74766 20.9676 1.74766 18.12V6.19989C2.17958 6.29658 2.80339 6.34494 3.5232 6.34494C5.87495 6.34494 9.2345 5.62073 12.018 2.24232L12.594 1.51858C12.7377 1.66361 12.8819 1.85652 12.9776 2.09777C14.8493 5.76576 18.1608 6.53783 20.6084 6.53783C21.7123 6.53783 22.6719 6.39281 23.3441 6.24825V18.12ZM23.7758 4.89699C23.7758 4.89699 22.3839 5.33113 20.6565 5.33113C17.5849 5.33113 15.3772 4.07656 14.0815 1.56694C13.6017 0.650297 12.9776 0.167807 12.8819 0.118982C12.6416 -0.0739193 12.2579 -0.0255966 12.0658 0.215651L11.058 1.42238C8.56252 4.46284 5.53913 5.08988 3.47541 5.08988C2.17958 5.08988 1.26794 4.84863 1.26794 4.84863C0.883755 4.75242 0.5 5.04201 0.5 5.42782V18.12C0.5 21.9326 3.23536 24.6835 6.49876 26.5656C9.37821 28.2064 12.2099 28.9302 12.3538 28.9785C12.4498 28.9785 12.5457 29.0269 12.6416 28.9785C12.7377 28.9302 15.6171 28.2548 18.4969 26.5656C21.7604 24.6835 24.496 21.9326 24.496 18.12V5.47617C24.5436 5.04203 24.1599 4.75243 23.7758 4.89699Z" fill="white"/>
<path d="M20.5605 9.67446V18.0238C20.5605 22.4634 13.6018 24.4905 12.5458 24.7796C11.4903 24.4905 4.53148 22.5117 4.53148 18.0238V9.62611C4.86731 9.67445 5.25125 9.7228 5.73097 9.7228C10.3384 9.7228 12.4021 6.44109 12.5941 6.34488C12.6417 6.44109 12.7379 6.53779 12.7859 6.634C14.2259 9.33653 16.7691 9.86785 18.6889 9.86785C19.4086 9.86785 20.0807 9.77115 20.5605 9.67446ZM13.8417 6.00694C13.4576 5.33107 12.9297 4.9448 12.8821 4.89693C12.6417 4.75237 12.306 4.80024 12.1141 4.99362L11.3462 5.91025C9.47451 8.03408 7.26685 8.51609 5.68323 8.51609C4.72322 8.51609 4.05139 8.3232 4.05139 8.3232C3.66763 8.22651 3.28345 8.5161 3.28345 8.90239V17.9754C3.28345 20.3884 4.86731 22.5601 7.93883 24.2009C10.1463 25.4071 12.306 25.8896 12.4021 25.938C12.4981 25.938 12.5941 25.938 12.6898 25.938C12.7859 25.938 14.9456 25.4071 17.1533 24.2009C20.1769 22.5601 21.8086 20.3884 21.8086 17.9754V8.90239C21.8086 8.5161 21.4245 8.22651 21.0403 8.3232C21.0403 8.3232 20.0326 8.61278 18.6889 8.61278C16.3855 8.66113 14.7537 7.74449 13.8417 6.00694Z" fill="white"/>
<path d="M16.7687 16.3349C16.7687 18.6512 14.897 20.5816 12.5454 20.5816C10.194 20.5816 8.32234 18.6995 8.32234 16.3349C8.32234 13.9698 10.194 12.0877 12.5454 12.0877C14.897 12.0877 16.7687 13.9698 16.7687 16.3349ZM7.17041 16.3349C7.17041 19.327 9.57 21.7883 12.5936 21.7883C15.6167 21.7883 18.0163 19.3749 18.0163 16.3349C18.0163 13.2945 15.5211 10.8815 12.5454 10.8815C9.57 10.8815 7.17041 13.2945 7.17041 16.3349Z" fill="white"/>
<path d="M11.1539 16.479C10.914 16.2378 10.5301 16.2378 10.29 16.479C10.0501 16.7203 10.0501 17.1066 10.29 17.3478L11.4901 18.5545C11.7777 18.8441 12.2098 18.7958 12.4019 18.4578L14.8016 14.8382C14.9934 14.5486 14.8973 14.1628 14.6574 14.0177C14.3694 13.8248 13.9857 13.9211 13.8415 14.1628L11.8736 17.1549L11.1539 16.479Z" fill="white"/>
</svg>
