<svg width="21" height="22" viewBox="0 0 21 22" fill="none" xmlns="http://www.w3.org/2000/svg">
<path fill-rule="evenodd" clip-rule="evenodd" d="M19.5423 0.104711C19.7755 0.0965666 20.0025 0.18163 20.1732 0.341193C20.3439 0.500753 20.4444 0.721741 20.4525 0.955538L20.8219 11.534C20.8301 11.7678 20.7453 11.9952 20.5861 12.1663C20.427 12.3374 20.2065 12.4381 19.9733 12.4462C19.74 12.4544 19.5131 12.3693 19.3424 12.2097C19.1717 12.0502 19.0712 11.8292 19.0631 11.5954L18.768 3.14499L1.54737 21.6581C1.46846 21.7429 1.37366 21.8113 1.26838 21.8594C1.1631 21.9075 1.04939 21.9343 0.933761 21.9383C0.818127 21.9424 0.702828 21.9235 0.594447 21.8829C0.486066 21.8423 0.386726 21.7807 0.302098 21.7016C0.217471 21.6225 0.149213 21.5274 0.101222 21.4219C0.0532314 21.3163 0.0264475 21.2023 0.0223998 21.0864C0.0183521 20.9705 0.0371198 20.855 0.0776314 20.7463C0.118143 20.6377 0.179605 20.5381 0.258508 20.4533L17.4809 1.94192L9.05075 2.23631C8.81751 2.24445 8.59058 2.15939 8.41988 1.99983C8.24918 1.84027 8.1487 1.61928 8.14054 1.38548C8.13237 1.15169 8.2172 0.924227 8.37635 0.753147C8.5355 0.582067 8.75594 0.48138 8.98918 0.473235L19.5423 0.104711Z" fill="white"/>
</svg>
