<svg width="31" height="30" viewBox="0 0 31 30" fill="none" xmlns="http://www.w3.org/2000/svg">
<path d="M0.0114763 7.50623C0.286093 19.8373 10.163 29.7062 22.4257 29.9768C22.6229 30 22.8201 30 23.0405 30C23.2609 30 23.4581 30 23.6477 29.9768C26.699 29.6675 29 27.1162 29 24.0431C29 23.7492 28.9768 23.4672 28.9382 23.2275C28.9382 23.2197 28.9345 23.2159 28.9345 23.2081V23.1927C28.9345 23.1889 28.9307 23.1889 28.9307 23.1849C28.8031 22.2069 28.4241 21.2907 27.8093 20.4675C27.8055 20.4637 27.8055 20.4597 27.8015 20.4559C27.7977 20.4481 27.7937 20.4405 27.7861 20.4327C27.7629 20.4017 27.7281 20.3825 27.7011 20.3594C27.6585 20.3167 27.6199 20.2744 27.5698 20.2434C27.5196 20.2124 27.4616 20.197 27.4036 20.1776C27.3688 20.166 27.3378 20.1428 27.2992 20.135L20.4503 18.8904C20.4039 18.8826 20.3575 18.8788 20.3111 18.8788H20.2917C20.2606 18.8788 20.2337 18.8941 20.2067 18.8982C20.1681 18.902 20.1333 18.9098 20.0945 18.9214C20.0211 18.9408 19.9553 18.9678 19.8894 19.0063C19.8741 19.0141 19.8625 19.0217 19.8509 19.0333C19.7734 19.0875 19.7079 19.153 19.6537 19.2342L19.6499 19.2379L19.6113 19.2959C19.5997 19.3191 19.5803 19.3385 19.5687 19.3617L17.6081 22.3768C12.9442 20.7264 9.27067 17.0539 7.6188 12.392L10.6506 10.4282C10.9214 10.3044 11.1108 10.03 11.1108 9.70936C11.1108 9.62038 11.0954 9.53545 11.0682 9.45806L9.84212 2.68555C9.80732 2.48844 9.69915 2.31452 9.54053 2.19453C8.71666 1.57598 7.75772 1.18555 6.80251 1.06579C6.53572 1.01941 6.2495 1 5.95544 1C2.88097 1 0.328575 3.3 0.0231992 6.34212C-1.7288e-07 6.53923 0 6.73633 0 6.95663C0 7.14996 0.00377666 7.3201 0.0194226 7.49402C0.0151065 7.50265 0.0110601 7.50642 0.0110601 7.50642L0.0114763 7.50623ZM1.57012 6.9613V6.88013C1.57012 6.75259 1.57012 6.63261 1.5855 6.51288C1.81371 4.27086 3.68936 2.58155 5.95157 2.58155H5.95939C6.13716 2.58155 6.31143 2.59315 6.4892 2.62011C6.50457 2.62388 6.52022 2.62388 6.53559 2.62793C6.54719 2.62793 6.55879 2.6317 6.57039 2.6317C7.20082 2.71287 7.79645 2.93316 8.3416 3.28881L9.43603 9.33847L6.23401 11.4104C6.21459 11.422 6.19921 11.4414 6.17979 11.4568C6.16441 11.4684 6.14877 11.4837 6.12961 11.4994C6.06379 11.5611 6.00202 11.6307 5.96345 11.7081C5.96345 11.7119 5.96345 11.7119 5.95967 11.7159C5.92109 11.7933 5.89789 11.8782 5.8863 11.9672C5.88252 11.9866 5.87847 12.0058 5.87847 12.0252C5.87847 12.0405 5.87065 12.06 5.87065 12.0753C5.87065 12.1527 5.88225 12.2298 5.90545 12.3034V12.3113C7.66505 17.924 12.0621 22.323 17.6771 24.0819C17.7545 24.105 17.8357 24.1204 17.9129 24.1204H17.9167H17.9245C17.9941 24.1204 18.0637 24.1088 18.1333 24.0856C18.1603 24.0778 18.1875 24.0662 18.2145 24.0546C18.253 24.0393 18.2919 24.0198 18.3305 23.9967C18.3615 23.9772 18.3885 23.9581 18.4154 23.9387C18.4424 23.9155 18.4697 23.8885 18.4929 23.8613C18.5198 23.8303 18.5471 23.8033 18.5703 23.7723C18.5703 23.7685 18.5741 23.7685 18.5741 23.7645L20.6663 20.5445L26.6722 21.6346C27.0434 22.1912 27.2795 22.7981 27.3644 23.463C27.3954 23.6448 27.4108 23.8457 27.4108 24.0506C27.4108 26.3121 25.7208 28.1869 23.4702 28.4147C23.3272 28.4301 23.184 28.4301 23.0294 28.4301C22.8824 28.4301 22.751 28.4301 22.6194 28.4185C22.5846 28.4147 22.5576 28.4147 22.5188 28.4107C11.0289 28.1556 1.82894 18.9594 1.57342 7.47459V7.46677C1.57342 7.44736 1.57342 7.42417 1.56965 7.40502C1.55805 7.28908 1.55427 7.16936 1.55427 7.04155C1.56965 7.01513 1.56965 6.98816 1.56965 6.9612L1.57012 6.9613Z" fill="#1623A4"/>
<path d="M16.8112 1.51442C23.7425 1.51442 29.3773 6.77718 29.3773 13.2427C29.3773 13.6621 29.7393 14 30.1886 14C30.638 14 31 13.6621 31 13.2427C31 5.94236 24.6373 0 16.8114 0C16.362 0 16 0.337858 16 0.757276C16 1.17642 16.3617 1.51429 16.8111 1.51429L16.8112 1.51442Z" fill="#1623A4"/>
<path d="M16.8151 5.63039C21.5341 5.63039 25.3695 9.47025 25.3695 14.1847C25.3695 14.6363 25.7332 15 26.1847 15C26.6363 15 27 14.6363 27 14.1847C27 8.57079 22.4329 4 16.8153 4C16.3637 4 16 4.36373 16 4.81526C16 5.26651 16.3635 5.63024 16.815 5.63024L16.8151 5.63039Z" fill="#1623A4"/>
<path d="M16.8234 9.64702C19.3222 9.64702 21.3527 11.6775 21.3527 14.1763C21.3527 14.6325 21.7202 15 22.1763 15C22.6325 15 23 14.6325 23 14.1763C23 10.7691 20.2309 8 16.8237 8C16.3675 8 16 8.36747 16 8.82366C16 9.2756 16.3672 9.64702 16.8234 9.64702Z" fill="#1623A4"/>
</svg>
