<svg width="16" height="16" viewBox="0 0 16 16" fill="none" xmlns="http://www.w3.org/2000/svg">
<path d="M10.9958 8.03296C10.9983 9.9977 10.618 11.9439 9.87646 13.7614" stroke="#042327" stroke-width="2" stroke-linecap="round" stroke-linejoin="round"/>
<path d="M10.2716 6.00617C9.86479 5.55236 9.3295 5.23251 8.73656 5.08893C8.14362 4.94536 7.52096 4.98482 6.95099 5.20211C6.38101 5.4194 5.89058 5.80427 5.54458 6.3058C5.19858 6.80733 5.01332 7.40187 5.01332 8.01076C5.01569 9.53883 4.62725 11.0422 3.88477 12.3786" stroke="#042327" stroke-width="2" stroke-linecap="round" stroke-linejoin="round"/>
<path d="M5.9917 2.31705C6.90055 1.99777 7.87294 1.9003 8.82738 2.03279C9.78181 2.16528 10.6905 2.52388 11.4772 3.07853C12.2639 3.63318 12.9058 4.36773 13.3491 5.2206C13.7923 6.07346 14.0239 7.0198 14.0246 7.9803C14.0255 9.32719 13.8752 10.6699 13.5768 11.9836" stroke="#042327" stroke-width="2" stroke-linecap="round" stroke-linejoin="round"/>
<path d="M1.44849 10.5351C1.81151 9.74997 1.99885 8.89622 1.99763 8.0325C1.99667 7.18728 2.17605 6.35143 2.52398 5.57985C2.87191 4.80828 3.38051 4.11844 4.01639 3.55566" stroke="#042327" stroke-width="2" stroke-linecap="round" stroke-linejoin="round"/>
<path d="M6.91362 12.9712C6.79157 13.2402 6.65989 13.5036 6.51855 13.7613" stroke="#042327" stroke-width="2" stroke-linecap="round" stroke-linejoin="round"/>
<path d="M8.033 8.03296C8.03378 9.0546 7.90104 10.0723 7.63794 11.0618" stroke="#042327" stroke-width="2" stroke-linecap="round" stroke-linejoin="round"/>
</svg>
