<svg width="28" height="28" viewBox="0 0 28 28" fill="none" xmlns="http://www.w3.org/2000/svg">
<path d="M27.3704 26.7415H1.25841V0.629212C1.25841 0.281887 0.976526 0 0.629205 0C0.281884 0 0 0.281887 0 0.629212V27.3707C0 27.7181 0.281884 27.9999 0.629205 27.9999H27.3704C27.7177 27.9999 27.9996 27.7181 27.9996 27.3707C27.9996 27.0234 27.7177 26.7415 27.3704 26.7415Z" fill="#1888CD"/>
<path d="M3.89385 25.4831H9.98927C10.3366 25.4831 10.6185 25.2012 10.6185 24.8539V15.9269C10.6185 15.5796 10.3366 15.2977 9.98927 15.2977H3.89385C3.54653 15.2977 3.26465 15.5796 3.26465 15.9269V24.8539C3.26465 25.2012 3.54653 25.4831 3.89385 25.4831ZM4.52306 16.5562H9.36007V24.2247H4.52306V16.5562Z" fill="#1888CD"/>
<path d="M11.9551 10.4212V24.8538C11.9551 25.2011 12.237 25.483 12.5843 25.483H18.6797C19.027 25.483 19.3089 25.2011 19.3089 24.8538V10.4212C19.3089 10.0739 19.027 9.79199 18.6797 9.79199H12.5843C12.237 9.79199 11.9551 10.0739 11.9551 10.4212ZM13.2135 11.0504H18.0505V24.2246H13.2135V11.0504Z" fill="#1888CD"/>
<path d="M27.3711 3.6178H21.2757C20.9284 3.6178 20.6465 3.89968 20.6465 4.24701V24.8537C20.6465 25.201 20.9284 25.4829 21.2757 25.4829H27.3711C27.7184 25.4829 28.0003 25.201 28.0003 24.8537V4.24701C28.0003 3.89968 27.7184 3.6178 27.3711 3.6178ZM26.7419 24.2245H21.9049V4.87622H26.7419V24.2245Z" fill="#1888CD"/>
<path d="M4.58323 13.1323C4.7443 13.1323 4.90538 13.0709 5.02808 12.9479L15.8277 2.14813V4.92075C15.8277 5.26808 16.1096 5.54997 16.457 5.54997C16.8043 5.54997 17.0862 5.26808 17.0862 4.92075V0.629212C17.0862 0.587999 17.0818 0.546785 17.0736 0.505887C17.0698 0.487325 17.0629 0.470021 17.0575 0.452089C17.0512 0.43101 17.0462 0.409303 17.0377 0.388539C17.0289 0.36746 17.0169 0.348269 17.0059 0.328134C16.9971 0.312089 16.9902 0.295415 16.9798 0.280314C16.9339 0.211101 16.8744 0.151955 16.8052 0.105708C16.7907 0.0959549 16.7747 0.0893481 16.7593 0.0808538C16.7388 0.0695279 16.7187 0.0569437 16.6967 0.0481347C16.6769 0.0399549 16.6558 0.0352359 16.6353 0.0289438C16.6165 0.0232809 16.5988 0.0160449 16.5793 0.0122696C16.5394 0.0044045 16.4991 0 16.4585 0C16.4579 0 16.4573 0 16.4563 0H12.1655C11.8181 0 11.5363 0.281887 11.5363 0.629212C11.5363 0.976537 11.8181 1.25842 12.1655 1.25842H14.9381L4.13838 12.0582C3.89268 12.3039 3.89268 12.7022 4.13838 12.9479C4.26107 13.0706 4.42215 13.1323 4.58323 13.1323Z" fill="#1888CD"/>
</svg>
