<svg width="33" height="32" viewBox="0 0 33 32" fill="none" xmlns="http://www.w3.org/2000/svg">
<path d="M16.4996 30.6664C8.39344 30.6664 1.83293 24.107 1.83293 15.9997C1.83293 7.89354 8.39344 1.33306 16.4996 1.33306C24.6064 1.33306 31.1663 7.89354 31.1663 15.9997C31.1663 24.107 24.6064 30.6664 16.4996 30.6664ZM16.4996 -3.82261e-07C7.64651 -3.82261e-07 0.499878 7.14661 0.499878 15.9997C0.499878 24.8534 7.64651 32 16.4996 32C25.3533 32 32.4999 24.8534 32.4999 15.9997C32.4999 7.14661 25.3533 -3.82261e-07 16.4996 -3.82261e-07Z" fill="#FA8100"/>
<path d="M16.4998 27.3601C10.2599 27.3601 5.13982 22.2934 5.13982 16.0001C5.13982 9.70671 10.2065 4.64008 16.4998 4.64008C22.7932 4.64008 27.8598 9.70671 27.8598 16.0001C27.8598 22.2934 22.7403 27.3601 16.4998 27.3601ZM16.4998 3.36046C9.51348 3.36046 3.80676 9.06665 3.80676 16.0535C3.80676 23.0404 9.51348 28.7471 16.4998 28.7471C23.4867 28.7471 29.1934 23.0404 29.1934 16.0535C29.1934 9.01375 23.4867 3.36046 16.4998 3.36046Z" fill="#FA8100"/>
<path d="M16.4997 18.0266C15.3798 18.0266 14.4731 17.1199 14.4731 15.9995C14.4731 14.8797 15.3798 13.973 16.4997 13.973C17.62 13.973 18.5267 14.8797 18.5267 15.9995C18.5267 17.1199 17.62 18.0266 16.4997 18.0266ZM16.4997 12.6928C14.6863 12.6928 13.1395 14.1867 13.1395 16.053C13.1395 17.9198 14.6334 19.4131 16.4997 19.4131C18.3664 19.4131 19.8597 17.9198 19.8597 16.053C19.8597 14.1867 18.3135 12.6928 16.4997 12.6928Z" fill="#FA8100"/>
<path d="M16.4998 7.99939C16.8733 7.99939 17.1933 8.31942 17.1933 8.69288C17.1933 9.06582 16.8733 9.33296 16.4998 9.33296C16.1269 9.33296 15.8063 9.01293 15.8063 8.63946C15.8063 8.266 16.1269 7.99939 16.4998 7.99939ZM16.4998 10.666C17.6202 10.666 18.5269 9.75933 18.5269 8.63946C18.5269 7.5196 17.6202 6.66633 16.4998 6.66633C15.38 6.66633 14.4733 7.57302 14.4733 8.69288C14.4733 9.81274 15.38 10.666 16.4998 10.666Z" fill="#FA8100"/>
<path d="M16.4998 24.0002C16.1269 24.0002 15.8063 23.6802 15.8063 23.3067C15.8063 22.9333 16.1269 22.6132 16.4998 22.6132C16.8733 22.6132 17.1933 22.9333 17.1933 23.3067C17.1933 23.6802 16.8733 24.0002 16.4998 24.0002ZM16.4998 21.3336C15.38 21.3336 14.4733 22.2403 14.4733 23.3602C14.4733 24.48 15.38 25.3867 16.4998 25.3867C17.6202 25.3867 18.5269 24.48 18.5269 23.3602C18.5269 22.2403 17.6202 21.3336 16.4998 21.3336Z" fill="#FA8100"/>
<path d="M21.1934 10.3468C21.46 10.0802 21.8863 10.0802 22.1529 10.3468C22.4195 10.6134 22.4195 11.0403 22.1529 11.3069C21.8863 11.5736 21.46 11.5736 21.1934 11.3069C20.9802 11.0403 20.9802 10.6134 21.1934 10.3468ZM23.113 12.2136C23.9129 11.4138 23.9129 10.1871 23.113 9.3867C22.3132 8.58688 21.0865 8.58688 20.2867 9.3867C19.4863 10.1871 19.4863 11.4138 20.2867 12.2136C21.0331 13.0134 22.3132 13.0134 23.113 12.2136Z" fill="#FA8100"/>
<path d="M11.8066 21.6525C11.54 21.9197 11.1131 21.9197 10.8465 21.6525C10.5799 21.3859 10.5799 20.9595 10.8465 20.6929C11.1131 20.4263 11.54 20.4263 11.8066 20.6929C12.0198 20.9595 12.0198 21.3859 11.8066 21.6525ZM9.88637 19.7862C9.08654 20.5861 9.08654 21.8128 9.88637 22.6126C10.6867 23.413 11.9134 23.413 12.7133 22.6126C13.5131 21.8128 13.5131 20.5861 12.7133 19.7862C11.9663 18.9859 10.6867 18.9859 9.88637 19.7862Z" fill="#FA8100"/>
<path d="M23.8599 16.6929C23.4865 16.6929 23.1664 16.3729 23.1664 15.9994C23.1664 15.6265 23.4865 15.3065 23.8599 15.3065C24.2334 15.3065 24.5529 15.6265 24.5529 15.9994C24.5529 16.3729 24.1794 16.6929 23.8599 16.6929ZM23.8599 14.0263C22.7401 14.0263 21.8334 14.933 21.8334 16.0529C21.8334 17.1733 22.7401 18.08 23.8599 18.08C24.9798 18.08 25.8865 17.1733 25.8865 16.0529C25.8865 14.933 24.9264 14.0263 23.8599 14.0263Z" fill="#FA8100"/>
<path d="M9.19269 16.6938C8.81975 16.6938 8.49971 16.3737 8.49971 16.0003C8.49971 15.6273 8.81975 15.3073 9.19269 15.3073C9.56615 15.3073 9.88621 15.6273 9.88621 16.0003C9.88621 16.3737 9.51325 16.6938 9.19269 16.6938ZM11.1663 16.0003C11.1663 14.8804 10.2597 13.9737 9.13979 13.9737C8.01993 13.9737 7.16614 14.8804 7.16614 16.0003C7.16614 17.1207 8.07282 18.0273 9.19269 18.0273C10.3131 18.0273 11.1663 17.1207 11.1663 16.0003Z" fill="#FA8100"/>
<path d="M22.1529 21.6525C21.8863 21.9197 21.46 21.9197 21.1934 21.6525C20.9268 21.3859 20.9268 20.9595 21.1934 20.6929C21.46 20.4263 21.8863 20.4263 22.1529 20.6929C22.4195 20.9595 22.4195 21.3859 22.1529 21.6525ZM20.2867 19.7862C19.4863 20.5861 19.4863 21.8128 20.2867 22.6126C21.0865 23.413 22.3132 23.413 23.113 22.6126C23.9129 21.8128 23.9129 20.5861 23.113 19.7862C22.3132 18.9859 21.0331 18.9859 20.2867 19.7862Z" fill="#FA8100"/>
<path d="M10.8465 10.3468C11.1131 10.0802 11.54 10.0802 11.8066 10.3468C12.0732 10.6134 12.0732 11.0403 11.8066 11.3069C11.54 11.5736 11.1131 11.5736 10.8465 11.3069C10.5799 11.0403 10.5799 10.6134 10.8465 10.3468ZM12.7133 12.2136C13.5131 11.4138 13.5131 10.1871 12.7133 9.3867C11.9134 8.58688 10.6867 8.58688 9.88637 9.3867C9.08654 10.1871 9.08654 11.4138 9.88637 12.2136C10.6867 13.0134 11.9663 13.0134 12.7133 12.2136Z" fill="#FA8100"/>
</svg>
