<svg width="32" height="32" viewBox="0 0 32 32" fill="none" xmlns="http://www.w3.org/2000/svg">
<path d="M19.3604 30.2935C20.4268 29.1202 21.2266 27.52 21.7604 26.0267H24.0007C24.3736 26.0267 24.6936 25.7066 24.6936 25.3332C24.6936 24.9602 24.3736 24.6397 24.0007 24.6397H22.1868C22.5602 23.4135 22.8268 22.0265 23.0405 20.64H29.92C28.3204 25.44 24.3202 29.1202 19.3604 30.2935ZM2.0805 20.6934H8.95997C9.17368 22.0799 9.4403 23.4669 9.81376 24.6931H8.00039C7.62693 24.6931 7.30689 25.0131 7.30689 25.3866C7.30689 25.7601 7.62693 26.0801 8.00039 26.0801H10.2401C10.7739 27.5734 11.5737 29.1736 12.6401 30.3464C7.68036 29.1202 3.68015 25.44 2.0805 20.6934ZM12.6401 1.70652C11.3071 3.19985 10.4004 5.38668 9.81376 7.30637H8.00039C7.62693 7.30637 7.30689 7.6264 7.30689 7.99986C7.30689 8.37333 7.62693 8.69336 8.00039 8.69336H9.44029C9.17369 9.97351 8.95997 11.3066 8.80022 12.693H1.70704C2.98666 7.25348 7.20004 2.98667 12.6401 1.70652ZM30.294 12.693H23.2003C23.0934 11.3066 22.8803 9.97351 22.5602 8.69336H24.0007C24.3736 8.69336 24.6936 8.37333 24.6936 7.99986C24.6936 7.6264 24.3736 7.30637 24.0007 7.30637H22.1868C21.6001 5.38668 20.7469 3.19985 19.3604 1.70652C24.7471 2.98667 29.0139 7.25348 30.294 12.693ZM23.2537 14.0266H30.5067C30.7204 15.7866 30.6669 17.5999 30.24 19.3599H23.2003C23.3606 17.5999 23.3606 15.7866 23.2537 14.0266ZM21.1738 8.69336C21.4938 9.92008 21.707 11.3066 21.8667 12.693H10.1338C10.2935 11.3066 10.5067 9.92008 10.8268 8.69336H21.1738ZM16.0003 1.33306C17.4936 1.33306 18.9869 2.8269 20.1068 5.44009C20.3739 6.02674 20.5871 6.66681 20.8003 7.35979H11.2002C11.4139 6.66681 11.6266 6.02675 11.8937 5.43957C13.0136 2.82691 14.5069 1.33306 16.0003 1.33306ZM1.49386 14.0266H8.74679C8.63993 15.7866 8.69389 17.5999 8.85364 19.3599H1.70704C1.33358 17.6533 1.22672 15.84 1.49386 14.0266ZM10.1338 19.3599C9.97351 17.6533 9.92009 15.8934 10.0269 14.0266H21.9201C22.027 15.8934 21.9736 17.7068 21.8138 19.3599H10.1338ZM11.2002 24.6931C10.8268 23.4669 10.5067 22.1333 10.347 20.6934H21.707C21.4938 22.1333 21.2266 23.4669 20.8537 24.6931H11.2002ZM16.0003 30.6664C14.5069 30.6664 13.0136 29.1736 11.8937 26.5599C11.7869 26.3467 11.7335 26.187 11.6806 25.9732H20.3739C20.3205 26.187 20.2136 26.3467 20.1602 26.5599C18.9869 29.1736 17.4936 30.6664 16.0003 30.6664ZM16.0003 -3.82261e-07C7.14714 -3.82261e-07 0 7.14661 0 15.9997C0 24.8534 7.14714 32 16.0003 32C24.8534 32 32.0005 24.8534 32.0005 15.9997C32.0005 7.14661 24.8534 -3.82261e-07 16.0003 -3.82261e-07Z" fill="white"/>
</svg>
