<svg width="28" height="32" viewBox="0 0 28 32" fill="none" xmlns="http://www.w3.org/2000/svg">
<path d="M26.1498 19.9851C26.1498 23.1297 24.0979 25.8477 20.1018 28.1392C17.4019 29.6314 14.7019 30.4307 13.9997 30.6437C13.2981 30.4841 10.5982 29.6848 7.89821 28.1392C3.90211 25.8477 1.8497 23.1297 1.8497 19.9851V3.35763H8.59984C8.97798 3.35763 9.30201 3.03784 9.30201 2.66465V1.33207H18.7521V2.66465C18.7521 3.03784 19.0761 3.35763 19.4537 3.35763H26.1498V19.9851ZM26.8519 2.02505H20.1018V0.69298C20.1018 0.319792 19.7778 7.90214e-08 19.4002 7.90214e-08H8.59984C8.22171 7.90214e-08 7.89821 0.319792 7.89821 0.69298V2.02505H1.20217C0.824036 2.02505 0.5 2.34484 0.5 2.71803V19.9851C0.5 24.1954 3.57807 27.2332 7.25013 29.3116C10.49 31.1236 13.6757 31.9229 13.838 31.9763C13.9462 31.9763 14.0538 32.0297 14.162 31.9763C14.2702 31.9229 17.51 31.177 20.7499 29.3116C24.4219 27.2332 27.5 24.1954 27.5 19.9851V2.66465C27.5 2.29147 27.176 2.02505 26.8519 2.02505Z" fill="#1888CD"/>
<path d="M23.0182 8.68684V19.8788C23.0182 24.7815 15.1883 27.0201 13.9998 27.3394C12.8124 27.0201 4.98192 24.8349 4.98192 19.8788V8.68684H8.59989C8.97802 8.68684 9.30205 8.36705 9.30205 7.99386V6.66179H18.7521V7.99386C18.7521 8.36705 19.0762 8.68684 19.4538 8.68684H23.0182ZM8.59989 5.32921C8.22176 5.32921 7.89825 5.64902 7.89825 6.02221V7.35425H4.27975C3.90215 7.35425 3.57812 7.67407 3.57812 8.04726V19.9316C3.57812 22.5963 5.36005 24.9945 8.81626 26.8065C11.2998 28.1391 13.7298 28.672 13.838 28.7253C13.9462 28.7253 14.0539 28.7253 14.1621 28.7253C14.2702 28.7253 16.6997 28.1391 19.1844 26.8065C22.5859 24.9945 24.422 22.5963 24.422 19.9316V7.99386C24.422 7.62067 24.0979 7.30088 23.7198 7.30088H20.1018V5.96881C20.1018 5.59562 19.7778 5.27583 19.3997 5.27583H8.59989V5.32921Z" fill="#1888CD"/>
<path d="M14.7023 11.9912C14.7023 11.618 14.3783 11.2982 14.0002 11.2982C13.6226 11.2982 13.2985 11.618 13.2985 11.9912V17.0007H8.22215C7.84455 17.0007 7.52051 17.3204 7.52051 17.6936C7.52051 18.0668 7.84455 18.3861 8.22215 18.3861H13.2985V23.3961C13.2985 23.7693 13.6226 24.0891 14.0002 24.0891C14.3783 24.0891 14.7023 23.7693 14.7023 23.3961V18.3861H19.7782C20.1563 18.3861 20.4804 18.0668 20.4804 17.6936C20.4804 17.3204 20.1563 17.0007 19.7782 17.0007H14.7023V11.9912Z" fill="#1888CD"/>
</svg>
