<svg width="33" height="32" viewBox="0 0 33 32" fill="none" xmlns="http://www.w3.org/2000/svg">
<path d="M16.4999 1.38187C18.3078 1.38187 19.8489 2.87025 19.8489 4.73086C19.8489 6.59147 18.3605 8.07985 16.4999 8.07985C14.6398 8.07985 13.1509 6.59147 13.1509 4.73086C13.1509 2.87025 14.6925 1.38187 16.4999 1.38187ZM16.4999 9.35522C19.0517 9.35522 21.178 7.28214 21.178 4.67761C21.178 2.07307 19.1044 -9.80561e-06 16.4999 -9.80561e-06C13.8954 -9.80561e-06 11.8223 2.07307 11.8223 4.67761C11.8223 7.28214 13.9486 9.35522 16.4999 9.35522Z" fill="#1888CD"/>
<path d="M27.8222 1.38187C29.6295 1.38187 31.1711 2.87025 31.1711 4.73086C31.1711 6.59147 29.6828 8.07985 27.8222 8.07985C25.9616 8.07985 24.4737 6.59147 24.4737 4.73086C24.4737 2.87025 25.9616 1.38187 27.8222 1.38187ZM27.8222 9.35522C30.3734 9.35522 32.4998 7.28214 32.4998 4.67761C32.4998 2.07307 30.4272 -9.80561e-06 27.8222 -9.80561e-06C25.2709 -9.80561e-06 23.1445 2.07307 23.1445 4.67761C23.1445 7.28214 25.2176 9.35522 27.8222 9.35522Z" fill="#1888CD"/>
<path d="M31.1181 27.3224C31.1181 29.1297 29.6297 30.6714 27.7696 30.6714C25.909 30.6714 24.4206 29.1825 24.4206 27.3224C24.4206 25.728 25.59 24.3989 27.0784 24.0799V27.9603C27.0784 28.3325 27.3974 28.6515 27.7696 28.6515C28.1413 28.6515 28.4603 28.3325 28.4603 27.9603V24.0266C29.9492 24.3456 31.1181 25.6748 31.1181 27.3224ZM24.5266 16.6912H27.1316V19.2958C25.8557 18.9768 24.7923 17.9666 24.5266 16.6912ZM16.5 19.349C15.8626 19.349 15.2773 19.1893 14.7464 18.8703L16.7662 16.6912H19.7425C19.424 18.1796 18.0949 19.349 16.5 19.349ZM8.52659 27.3224C8.52659 29.1297 7.03824 30.6714 5.17763 30.6714C3.31755 30.6714 1.88188 29.1297 1.88188 27.3224C1.88188 25.728 3.05129 24.3989 4.53967 24.0799V27.9603C4.53967 28.3325 4.85918 28.6515 5.17763 28.6515C5.33738 28.6515 5.54985 28.5983 5.65582 28.4385L8.15491 25.834C8.42063 26.2595 8.52659 26.7377 8.52659 27.3224ZM1.88188 16C1.88188 14.4057 3.05129 13.0765 4.53967 12.7575V19.2425C3.05129 18.9235 1.88188 17.5949 1.88188 16ZM1.88188 4.73093C1.88188 2.92357 3.37026 1.38194 5.23087 1.38194C7.09148 1.38194 8.57932 2.87032 8.57932 4.73093C8.57932 6.32528 7.41046 7.65444 5.92155 7.97342V4.73093C5.92155 4.3587 5.6031 4.03972 5.23087 4.03972C4.85917 4.03972 4.53967 4.3587 4.53967 4.73093V7.97342C3.05129 7.65444 1.88188 6.32528 1.88188 4.73093ZM8.52659 16C8.52659 17.5949 7.35721 18.9235 5.86883 19.2425V12.7575C7.35721 13.0765 8.52659 14.4057 8.52659 16ZM7.30394 24.7178L5.86883 26.2595V24.0266C6.40081 24.1331 6.93172 24.3989 7.30394 24.7178ZM13.2048 16C13.2048 14.1927 14.6926 12.651 16.5532 12.651C18.1481 12.651 19.4767 13.8204 19.7957 15.3088H16.5532C16.394 15.3088 16.181 15.3621 16.0745 15.5218L13.8422 17.8606C13.4167 17.3824 13.2048 16.6912 13.2048 16ZM27.8223 12.7043C29.6297 12.7043 31.1713 14.1927 31.1713 16.0533C31.1713 17.6482 30.0019 18.9768 28.5135 19.2958V16.0533C28.5135 15.681 28.1946 15.3621 27.8223 15.3621H24.5798C24.8456 13.8204 26.1742 12.7043 27.8223 12.7043ZM32.4472 16C32.4472 13.4487 30.3736 11.3224 27.7696 11.3224C25.4303 11.3224 23.4637 13.0765 23.1447 15.3088H21.0716C20.7526 13.0765 18.786 11.3224 16.4467 11.3224C13.8954 11.3224 11.7691 13.3955 11.7691 16C11.7691 17.1162 12.1413 18.0731 12.7793 18.8703L8.26089 23.7609C7.62294 23.1762 6.77251 22.804 5.86883 22.698V20.6249C8.10113 20.3059 9.85523 18.3388 9.85523 16C9.85523 13.6612 8.10113 11.6946 5.86883 11.3757V9.30204C8.10113 8.98307 9.85523 7.01649 9.85523 4.67768C9.85523 2.12639 7.78269 6.05689e-05 5.17763 6.05689e-05C2.57309 6.05689e-05 0.5 2.07314 0.5 4.62443C0.5 6.96324 2.25411 8.93034 4.48695 9.24932V11.3224C2.25411 11.6414 0.5 13.608 0.5 15.9468C0.5 18.2856 2.25411 20.2527 4.48695 20.5711V22.6448C2.25411 22.9637 0.5 24.9303 0.5 27.2696C0.5 29.8204 2.57309 31.9473 5.17763 31.9473C7.78269 31.9473 9.85523 29.8742 9.85523 27.2696C9.85523 26.366 9.58952 25.4623 9.11131 24.7706L13.8422 19.7745C14.5866 20.3059 15.543 20.6249 16.5 20.6249C18.8388 20.6249 20.8059 18.8703 21.1243 16.638H23.1979C23.4637 18.6578 25.1118 20.3059 27.1316 20.5711V22.6448C24.8988 22.9637 23.1447 24.9303 23.1447 27.2696C23.1447 29.8204 25.2178 31.9473 27.8223 31.9473C30.3736 31.9473 32.4999 29.8742 32.4999 27.2696C32.4999 24.9303 30.7458 22.9637 28.5135 22.6448V20.5711C30.6931 20.3059 32.4472 18.3388 32.4472 16Z" fill="#1888CD"/>
<path d="M16.4999 30.6181C14.6925 30.6181 13.1509 29.1297 13.1509 27.2697C13.1509 25.4085 14.6398 23.9207 16.4999 23.9207C18.3605 23.9207 19.8489 25.4085 19.8489 27.2697C19.8489 29.1297 18.3078 30.6181 16.4999 30.6181ZM16.4999 22.6448C13.9486 22.6448 11.8223 24.7178 11.8223 27.3224C11.8223 29.8742 13.8954 32 16.4999 32C19.1044 32 21.178 29.9274 21.178 27.3224C21.178 24.7178 19.0517 22.6448 16.4999 22.6448Z" fill="#1888CD"/>
</svg>
