<svg width="24" height="24" viewBox="0 0 24 24" fill="none" xmlns="http://www.w3.org/2000/svg">
<path d="M22.9233 5.98988C21.6476 5.98988 2.27248 5.98988 0.996461 5.98988V0.998012H22.9233V5.98988ZM20.93 13.9769C20.93 16.5324 19.8137 18.9684 17.9402 20.6855V17.4909C17.9402 14.1766 15.2691 11.501 11.9599 11.501C8.65099 11.501 5.97993 14.1766 5.97993 17.4909V20.6855C4.10643 18.9684 2.98977 16.5324 2.98977 13.9769V6.98801H20.93V13.9769ZM6.97678 21.4444V17.451C6.97678 14.6954 9.20932 12.4591 11.9599 12.4591C14.7108 12.4591 16.9433 14.7354 16.9433 17.4909V21.4843C13.9532 23.481 10.0065 23.481 6.97678 21.4444ZM23.4417 -0.000122547H0.518004C0.239233 -0.000122547 0 0.239509 0 0.518749V6.50875C0 6.78838 0.239233 7.02841 0.518004 7.02841H2.03325V14.0165C2.03325 19.4876 6.45839 23.9999 11.9998 23.9999C17.5416 23.9999 21.9668 19.5272 21.9668 14.0165V6.98801H23.4816C23.7608 6.98801 24 6.74878 24 6.46914V0.479141C23.9201 0.239509 23.6809 -0.000122547 23.4417 -0.000122547Z" fill="#1623A4"/>
<path d="M11.9898 20.9914C10.8739 20.9914 9.99646 20.1134 9.99646 18.9948C9.99646 17.8766 10.8739 16.9981 11.9898 16.9981C13.1064 16.9981 13.9831 17.8766 13.9831 18.9948C13.9831 20.1134 13.1064 20.9914 11.9898 20.9914ZM11.9898 16C10.3555 16 9 17.3578 9 18.9948C9 20.6322 10.3555 21.99 11.9898 21.99C13.6244 21.99 14.9799 20.6322 14.9799 18.9948C14.9799 17.3578 13.6244 16 11.9898 16Z" fill="#1623A4"/>
</svg>
