<svg width="32" height="32" viewBox="0 0 32 32" fill="none" xmlns="http://www.w3.org/2000/svg">
<path d="M30.6158 30.6158H1.3312V1.33084H30.6158V30.6158ZM31.3077 -6.76054e-07H0.692296C0.319505 -6.76054e-07 0 0.319507 0 0.691827V31.3081C0 31.6811 0.319505 32 0.692296 32H31.3077C31.6805 32 32 31.6811 32 31.3081V0.691827C31.9467 0.319507 31.6272 -6.76054e-07 31.3077 -6.76054e-07Z" fill="white"/>
<path d="M15.9732 6.65559C18.9018 6.65559 21.2978 9.05165 21.2978 11.98C21.2978 13.7371 20.446 15.3351 19.0085 16.3465C18.7951 16.5065 18.689 16.7193 18.7418 16.9855L19.8603 25.2916H12.0865L13.2046 16.9855C13.2577 16.7193 13.1516 16.5065 12.9385 16.3465C11.5009 15.3351 10.6489 13.7371 10.6489 11.98C10.6489 9.05165 13.0449 6.65559 15.9732 6.65559ZM11.8202 17.1983L10.6489 25.8773C10.5954 26.3029 10.915 26.623 11.288 26.623H20.6055C21.0317 26.623 21.2978 26.2503 21.2445 25.8773L20.0731 17.1983C21.6707 15.9203 22.5758 14.0038 22.5758 11.98C22.5758 8.30648 19.5941 5.32474 15.9203 5.32474C12.2462 5.32474 9.31787 8.30648 9.31787 11.98C9.31787 14.0038 10.2761 15.9203 11.8202 17.1983Z" fill="white"/>
<path d="M15.9732 10.0098C16.7186 10.0098 17.3043 10.5955 17.3043 11.3407C17.3043 12.0864 16.7186 12.6726 15.9732 12.6726C15.2277 12.6726 14.6422 12.0864 14.6422 11.3407C14.6422 10.5955 15.2277 10.0098 15.9732 10.0098ZM15.9732 14.0034C17.4643 14.0034 18.6356 12.8321 18.6356 11.3407C18.6356 9.85033 17.4643 8.67845 15.9732 8.67845C14.4826 8.67845 13.311 9.85033 13.311 11.3407C13.311 12.8321 14.4826 14.0034 15.9732 14.0034Z" fill="white"/>
</svg>
