<svg width="33" height="32" viewBox="0 0 33 32" fill="none" xmlns="http://www.w3.org/2000/svg">
<path d="M16.4998 30.6664C8.39357 30.6664 1.83306 24.1065 1.83306 15.9997C1.83306 7.89248 8.39357 1.33304 16.4998 1.33304C24.6065 1.33304 31.1664 7.89248 31.1664 15.9997C31.1664 24.1065 24.6065 30.6664 16.4998 30.6664ZM16.4998 -9.88784e-07C7.64664 -9.88784e-07 0.5 7.14608 0.5 15.9997C0.5 24.8529 7.64664 32 16.4998 32C25.3534 32 32.5 24.8529 32.5 15.9997C32.5 7.14608 25.3534 -9.88784e-07 16.4998 -9.88784e-07Z" fill="#1888CD"/>
<path d="M17.1932 23.306V19.9993C17.1932 19.6259 16.8732 19.3064 16.4997 19.3064C16.1268 19.3064 15.8062 19.6259 15.8062 19.9993V23.306C12.2863 22.9865 9.51334 20.1596 9.19278 16.6926H12.4995C12.873 16.6926 13.1935 16.3731 13.1935 15.9997C13.1935 15.6262 12.873 15.3062 12.4995 15.3062H9.19278C9.51334 11.7863 12.3402 9.0128 15.8062 8.69277V11.9995C15.8062 12.3729 16.1268 12.693 16.4997 12.693C16.8732 12.693 17.1932 12.3729 17.1932 11.9995V8.69277C20.7131 9.0128 23.4865 11.8392 23.8066 15.3062H20.4999C20.1264 15.3062 19.8064 15.6262 19.8064 15.9997C19.8064 16.3731 20.1264 16.6926 20.4999 16.6926H23.8066C23.4865 20.1596 20.6596 22.9865 17.1932 23.306ZM28.4997 15.3596H25.1402C24.8196 11.0928 21.4066 7.73319 17.1397 7.35972V3.99959C17.1397 3.62613 16.8197 3.30662 16.4463 3.30662C16.0728 3.30662 15.7533 3.62613 15.7533 3.99959V7.35972C11.4865 7.67923 8.12687 11.0928 7.7534 15.3596H4.49962C4.12615 15.3596 3.80664 15.6796 3.80664 16.0526C3.80664 16.426 4.12615 16.7461 4.49962 16.7461H7.85974C8.17978 21.0129 11.5928 24.373 15.8601 24.7465V27.9997C15.8601 28.3727 16.1796 28.6932 16.5531 28.6932C16.926 28.6932 17.2466 28.3727 17.2466 27.9997V24.6396C21.5129 24.3196 24.873 20.906 25.2465 16.6397H28.4997C28.8732 16.6397 29.1933 16.3197 29.1933 15.9462C29.1933 15.6262 28.8732 15.3596 28.4997 15.3596Z" fill="#1888CD"/>
</svg>
