<svg width="24" height="24" viewBox="0 0 24 24" fill="none" xmlns="http://www.w3.org/2000/svg">
<path d="M14.5203 22.7201C15.3201 21.8401 15.92 20.64 16.3203 19.52H18.0005C18.2802 19.52 18.5202 19.28 18.5202 18.9999C18.5202 18.7202 18.2802 18.4798 18.0005 18.4798H16.6401C16.9202 17.5601 17.1201 16.5199 17.2804 15.48H22.44C21.2403 19.08 18.2401 21.8401 14.5203 22.7201ZM1.56037 15.5201H6.71998C6.88026 16.5599 7.08022 17.6002 7.36032 18.5198H6.0003C5.7202 18.5198 5.48017 18.7599 5.48017 19.04C5.48017 19.3201 5.7202 19.5601 6.0003 19.5601H7.68009C8.0804 20.6801 8.68027 21.8802 9.4801 22.7598C5.76027 21.8401 2.76011 19.08 1.56037 15.5201ZM9.4801 1.27989C8.48032 2.39989 7.80031 4.04001 7.36032 5.47978H6.0003C5.7202 5.47978 5.48017 5.7198 5.48017 5.9999C5.48017 6.28 5.7202 6.52002 6.0003 6.52002H7.08022C6.88026 7.48013 6.71998 8.47993 6.60016 9.51978H1.28028C2.23999 5.44011 5.40003 2.24 9.4801 1.27989ZM22.7205 9.51978H17.4002C17.3201 8.47993 17.1602 7.48013 16.9202 6.52002H18.0005C18.2802 6.52002 18.5202 6.28 18.5202 5.9999C18.5202 5.7198 18.2802 5.47978 18.0005 5.47978H16.6401C16.2001 4.04001 15.5601 2.39989 14.5203 1.27989C18.5603 2.24 21.7604 5.44011 22.7205 9.51978ZM17.4403 10.52H22.88C23.0403 11.8399 23.0002 13.1999 22.68 14.5199H17.4002C17.5204 13.1999 17.5204 11.8399 17.4403 10.52ZM15.8803 6.52002C16.1203 7.44006 16.2802 8.47993 16.4 9.51978H7.60034C7.72016 8.47993 7.88005 7.44006 8.12008 6.52002H15.8803ZM12.0002 0.999793C13.1202 0.999793 14.2402 2.12017 15.0801 4.08007C15.2804 4.52005 15.4403 5.00011 15.6002 5.51984H8.40018C8.56046 5.00011 8.71994 4.52006 8.9203 4.07968C9.7602 2.12018 10.8802 0.999793 12.0002 0.999793ZM1.12039 10.52H6.56009C6.47995 11.8399 6.52042 13.1999 6.64023 14.5199H1.28028C1.00018 13.24 0.92004 11.88 1.12039 10.52ZM7.60034 14.5199C7.48013 13.24 7.44007 11.9201 7.52021 10.52H16.4401C16.5203 11.9201 16.4802 13.2801 16.3604 14.5199H7.60034ZM8.40018 18.5198C8.12008 17.6002 7.88004 16.6 7.76023 15.5201H16.2802C16.1203 16.6 15.92 17.6002 15.6403 18.5198H8.40018ZM12.0002 22.9998C10.8802 22.9998 9.7602 21.8802 8.9203 19.9199C8.84016 19.76 8.80009 19.6402 8.76042 19.4799H15.2804C15.2404 19.6402 15.1602 19.76 15.1202 19.9199C14.2402 21.8802 13.1202 22.9998 12.0002 22.9998ZM12.0002 8.40075e-07C5.36035 8.40075e-07 0 5.35996 0 11.9998C0 18.64 5.36035 24 12.0002 24C18.64 24 24.0004 18.64 24.0004 11.9998C24.0004 5.35996 18.64 8.40075e-07 12.0002 8.40075e-07Z" fill="#1623A4"/>
</svg>
