<svg width="32" height="32" viewBox="0 0 32 32" fill="none" xmlns="http://www.w3.org/2000/svg">
<path d="M28.5619 20.6182H23.2727V14.0016H28.5619V20.6182ZM30.5193 25.2768H1.42824V21.9424H30.5193V25.2768ZM28.5619 30.5703H23.2727V26.6005H28.5619V30.5703ZM18.6183 30.5703H13.3292V26.6005H18.6183V30.5703ZM8.72724 30.5703H3.43804V26.6005H8.72724V30.5703ZM3.43804 14.0016H8.72724V20.6182H3.43804V14.0016ZM10.0498 20.6182V14.0016H12.0066V20.6182H10.0498ZM13.3292 20.6182V14.0016H18.6183V20.6182H13.3292ZM19.9404 20.6182V14.0016H21.9507V20.6182H19.9404ZM1.42824 9.39598H30.5193V12.7316H1.42824V9.39598ZM3.43804 5.00245L6.08264 1.82648L8.72724 5.00245C8.72724 5.84934 8.72724 7.54364 8.72724 8.07288H3.43804V5.00245ZM13.3292 5.00245L15.9738 1.82648L18.6183 5.00245C18.6183 5.84934 18.6183 7.54364 18.6183 8.07288H13.3292V5.00245ZM23.2727 5.00245L25.9173 1.82648L28.5619 5.00245C28.5619 5.84934 28.5619 7.54364 28.5619 8.07288H23.2727V5.00245ZM31.2065 14.0016C31.5769 14.0016 31.8948 13.684 31.8948 13.3133V8.65515C31.8948 8.28447 31.5769 7.96735 31.2065 7.96735H29.885C29.885 7.54364 29.885 5.056 29.885 4.63229C29.885 4.47321 29.8315 4.31465 29.7261 4.20859L26.3937 0.238235C26.1288 -0.0794144 25.6529 -0.0794144 25.3885 0.238235L22.0567 4.31464C21.9507 4.4207 21.8977 4.57874 21.8977 4.73783V8.01985H19.9404C19.9404 7.59667 19.9404 5.1085 19.9404 4.68532C19.9404 4.52624 19.8879 4.36714 19.7819 4.26161L16.4496 0.29126C16.1852 -0.0263901 15.7093 -0.0263901 15.4444 0.29126L12.1126 4.26161C12.0596 4.4732 12.0066 4.63229 12.0066 4.73783V8.01985H9.9968C9.9968 7.59667 9.9968 5.1085 9.9968 4.68532C9.9968 4.52624 9.94381 4.36714 9.83836 4.26161L6.506 0.29126C6.24107 -0.0263901 5.76526 -0.0263901 5.50085 0.29126L2.169 4.26161C2.0625 4.36714 2.01005 4.52624 2.01005 4.68532V7.96735H0.687496C0.317117 7.96735 0.000244141 8.28447 0.000244141 8.65515V13.3133C0.000244141 13.684 0.317117 14.0016 0.687496 14.0016H2.01005V20.6182H0.687496C0.317117 20.6182 0.000244141 20.9364 0.000244141 21.307V25.9651C0.000244141 26.3359 0.317117 26.653 0.687496 26.653H2.01005V31.3117C2.01005 31.6823 2.32742 32 2.69728 32H9.36201C9.73238 32 10.0498 31.6823 10.0498 31.3117V26.653H12.0066V31.3117C12.0066 31.6823 12.324 32 12.6944 32H19.3061C19.6765 32 19.9934 31.6823 19.9934 31.3117V26.653H22.0032V31.3117C22.0032 31.6823 22.3211 32 22.6915 32H29.3027C29.6725 32 29.9904 31.6823 29.9904 31.3117V26.653H31.3125C31.6829 26.653 32.0002 26.3359 32.0002 25.9651V21.307C32.0002 20.9364 31.6829 20.6187 31.3125 20.6187H29.9904V14.0016H31.2065Z" fill="white"/>
</svg>
