<svg width="32" height="32" viewBox="0 0 32 32" fill="none" xmlns="http://www.w3.org/2000/svg">
<path d="M15.9998 30.6664C7.89357 30.6664 1.33306 24.1065 1.33306 15.9997C1.33306 7.89248 7.89357 1.33304 15.9998 1.33304C24.1065 1.33304 30.6664 7.89248 30.6664 15.9997C30.6664 24.1065 24.1065 30.6664 15.9998 30.6664ZM15.9998 -9.88784e-07C7.14664 -9.88784e-07 0 7.14608 0 15.9997C0 24.8529 7.14664 32 15.9998 32C24.8534 32 32 24.8529 32 15.9997C32 7.14608 24.8534 -9.88784e-07 15.9998 -9.88784e-07Z" fill="white"/>
<path d="M16.6933 23.3059V19.9992C16.6933 19.6257 16.3733 19.3062 15.9998 19.3062C15.6269 19.3062 15.3063 19.6257 15.3063 19.9992V23.3059C11.7864 22.9864 9.01346 20.1595 8.6929 16.6925H11.9996C12.3731 16.6925 12.6936 16.373 12.6936 15.9995C12.6936 15.6261 12.3731 15.306 11.9996 15.306H8.6929C9.01346 11.7862 11.8404 9.01268 15.3063 8.69264V11.9993C15.3063 12.3728 15.6269 12.6928 15.9998 12.6928C16.3733 12.6928 16.6933 12.3728 16.6933 11.9993V8.69264C20.2132 9.01268 22.9867 11.8391 23.3067 15.306H20C19.6265 15.306 19.3065 15.6261 19.3065 15.9995C19.3065 16.373 19.6265 16.6925 20 16.6925H23.3067C22.9867 20.1595 20.1598 22.9864 16.6933 23.3059ZM27.9999 15.3595H24.6403C24.3197 11.0927 20.9067 7.73306 16.6399 7.3596V3.99947C16.6399 3.62601 16.3198 3.30649 15.9464 3.30649C15.5729 3.30649 15.2534 3.62601 15.2534 3.99947V7.3596C10.9866 7.67911 7.62699 11.0927 7.25353 15.3595H3.99974C3.62628 15.3595 3.30676 15.6795 3.30676 16.0524C3.30676 16.4259 3.62628 16.7459 3.99974 16.7459H7.35987C7.6799 21.0127 11.0929 24.3729 15.3603 24.7463V27.9996C15.3603 28.3725 15.6798 28.6931 16.0532 28.6931C16.4262 28.6931 16.7467 28.3725 16.7467 27.9996V24.6395C21.013 24.3194 24.3731 20.9059 24.7466 16.6396H27.9999C28.3733 16.6396 28.6934 16.3196 28.6934 15.9461C28.6934 15.6261 28.3733 15.3595 27.9999 15.3595Z" fill="white"/>
</svg>
