<svg width="33" height="32" viewBox="0 0 33 32" fill="none" xmlns="http://www.w3.org/2000/svg">
<path d="M31.1158 30.6158H1.8312V1.33084H31.1158V30.6158ZM31.8077 -6.76054e-07H1.1923C0.819505 -6.76054e-07 0.5 0.319507 0.5 0.691827V31.3081C0.5 31.6811 0.819505 32 1.1923 32H31.8077C32.1805 32 32.5 31.6811 32.5 31.3081V0.691827C32.4467 0.319507 32.1272 -6.76054e-07 31.8077 -6.76054e-07Z" fill="#1888CD"/>
<path d="M16.4732 6.65559C19.4018 6.65559 21.7978 9.05165 21.7978 11.98C21.7978 13.7371 20.946 15.3351 19.5085 16.3465C19.2951 16.5065 19.189 16.7193 19.2418 16.9855L20.3603 25.2916H12.5865L13.7046 16.9855C13.7577 16.7193 13.6516 16.5065 13.4385 16.3465C12.0009 15.3351 11.1489 13.7371 11.1489 11.98C11.1489 9.05165 13.5449 6.65559 16.4732 6.65559ZM12.3202 17.1983L11.1489 25.8773C11.0954 26.3029 11.415 26.623 11.788 26.623H21.1055C21.5317 26.623 21.7978 26.2503 21.7445 25.8773L20.5731 17.1983C22.1707 15.9203 23.0758 14.0038 23.0758 11.98C23.0758 8.30648 20.0941 5.32474 16.4203 5.32474C12.7462 5.32474 9.81787 8.30648 9.81787 11.98C9.81787 14.0038 10.7761 15.9203 12.3202 17.1983Z" fill="#1888CD"/>
<path d="M16.4732 10.0098C17.2186 10.0098 17.8043 10.5955 17.8043 11.3407C17.8043 12.0864 17.2186 12.6726 16.4732 12.6726C15.7277 12.6726 15.1422 12.0864 15.1422 11.3407C15.1422 10.5955 15.7277 10.0098 16.4732 10.0098ZM16.4732 14.0034C17.9643 14.0034 19.1356 12.8321 19.1356 11.3407C19.1356 9.85033 17.9643 8.67845 16.4732 8.67845C14.9826 8.67845 13.811 9.85033 13.811 11.3407C13.811 12.8321 14.9826 14.0034 16.4732 14.0034Z" fill="#1888CD"/>
</svg>
