<svg width="24" height="28" viewBox="0 0 24 28" fill="none" xmlns="http://www.w3.org/2000/svg">
<path d="M22.7998 17.4872C22.7998 20.2388 20.976 22.6166 17.4239 24.6221C15.024 25.9272 12.6241 26.627 12 26.8135C11.3759 26.6738 8.97596 25.9744 6.57606 24.6221C3.02452 22.6166 1.20019 20.2388 1.20019 17.4872V1.16562H22.7998V17.4872ZM23.4239 6.10352e-05H0.624142C0.288032 6.10352e-05 0 0.279886 0 0.605967V17.4872C0 21.1712 2.73649 23.8293 6 25.6479C8.88027 27.2335 11.712 27.9327 11.8562 27.9795C11.9519 27.9795 12.0481 28.0258 12.1438 27.9795C12.2399 27.9327 15.1197 27.2798 18 25.6479C21.264 23.8293 24 21.1712 24 17.4872V0.605967C24 0.279886 23.712 6.10352e-05 23.4239 6.10352e-05Z" fill="#1888CD"/>
<path d="M3.98412 4.1036H20.0636V17.3937C20.0636 21.6842 13.1039 23.6429 12.0479 23.9222C10.992 23.6429 4.03221 21.7308 4.03221 17.3937C3.98412 17.3937 3.98412 4.1036 3.98412 4.1036ZM7.39189 23.3626C9.59993 24.5287 11.7599 24.9954 11.8561 25.0416C11.9518 25.0416 12.0479 25.0416 12.1436 25.0416C12.2398 25.0416 14.3997 24.5287 16.6078 23.3626C19.6318 21.7776 21.2638 19.6791 21.2638 17.3475V3.49723C21.2638 3.17115 20.9758 2.89132 20.6397 2.89132H3.35999C3.02436 2.89132 2.73633 3.17115 2.73633 3.49723V17.3937C2.78394 19.7253 4.36785 21.7776 7.39189 23.3626Z" fill="#1888CD"/>
<path d="M12 7.60069C13.344 7.60069 14.3999 8.62703 14.3999 9.93227C14.3999 11.2384 13.344 12.2643 12 12.2643C10.656 12.2643 9.60011 11.2384 9.60011 9.93227C9.60011 8.62703 10.656 7.60069 12 7.60069ZM11.424 13.3369V19.2129C11.424 19.5388 11.712 19.8187 12.0481 19.8187C12.3842 19.8187 12.6722 19.5388 12.6722 19.2129V13.3369C14.3518 13.0571 15.6958 11.6112 15.6958 9.88602C15.6958 7.97394 14.0638 6.38841 12.0962 6.38841C10.1281 6.38841 8.40039 7.97394 8.40039 9.93227C8.40039 11.6579 9.69627 13.0571 11.424 13.3369Z" fill="#1888CD"/>
</svg>
