<svg width="24" height="28" viewBox="0 0 24 28" fill="none" xmlns="http://www.w3.org/2000/svg">
<path d="M22.7998 17.4871C22.7998 20.2387 20.976 22.6165 17.4239 24.622C15.024 25.9272 12.6241 26.6269 12 26.8134C11.3759 26.6737 8.97596 25.9744 6.57606 24.622C3.02452 22.6165 1.20019 20.2387 1.20019 17.4871V1.16556H22.7998V17.4871ZM23.4239 0H0.624142C0.288032 0 0 0.279825 0 0.605906V17.4871C0 21.1711 2.73649 23.8292 6 25.6479C8.88027 27.2335 11.712 27.9327 11.8562 27.9794C11.9519 27.9794 12.0481 28.0257 12.1438 27.9794C12.2399 27.9327 15.1197 27.2797 18 25.6479C21.264 23.8292 24 21.1711 24 17.4871V0.605906C24 0.279825 23.712 0 23.4239 0Z" fill="#1623A4"/>
<path d="M3.98437 4.10347H20.0639V17.3936C20.0639 21.684 13.1041 23.6427 12.0482 23.9221C10.9922 23.6427 4.03245 21.7307 4.03245 17.3936C3.98437 17.3936 3.98437 4.10347 3.98437 4.10347ZM7.39213 23.3625C9.60018 24.5286 11.7601 24.9953 11.8563 25.0415C11.952 25.0415 12.0482 25.0415 12.1439 25.0415C12.24 25.0415 14.4 24.5286 16.608 23.3625C19.6321 21.7775 21.2641 19.679 21.2641 17.3474V3.4971C21.2641 3.17103 20.976 2.8912 20.6399 2.8912H3.36024C3.0246 2.8912 2.73657 3.17103 2.73657 3.4971V17.3936C2.78418 19.7252 4.36809 21.7775 7.39213 23.3625Z" fill="#1623A4"/>
<path d="M12 7.60063C13.344 7.60063 14.3999 8.62697 14.3999 9.93221C14.3999 11.2384 13.344 12.2642 12 12.2642C10.656 12.2642 9.60011 11.2384 9.60011 9.93221C9.60011 8.62697 10.656 7.60063 12 7.60063ZM11.424 13.3368V19.2128C11.424 19.5387 11.712 19.8186 12.0481 19.8186C12.3842 19.8186 12.6722 19.5387 12.6722 19.2128V13.3368C14.3518 13.057 15.6958 11.6112 15.6958 9.88596C15.6958 7.97388 14.0638 6.38835 12.0962 6.38835C10.1281 6.38835 8.40039 7.97388 8.40039 9.93221C8.40039 11.6579 9.69627 13.057 11.424 13.3368Z" fill="#1623A4"/>
</svg>
