<svg width="46" height="45" viewBox="0 0 46 45" fill="none" xmlns="http://www.w3.org/2000/svg">
<path d="M45.1796 7.06194C45.1048 6.76263 44.8802 6.61297 44.5808 6.53814L39.6402 5.56537L38.667 0.626688C38.5922 0.327374 38.4424 0.102889 38.143 0.0280608C37.8436 -0.0467677 37.619 0.0280602 37.3944 0.252546L31.6304 6.01434C31.4807 6.164 31.4058 6.46331 31.4058 6.6878L32.379 11.7013L31.4058 12.7489C24.1447 6.01434 12.7663 6.164 5.65487 13.2727C-1.60631 20.5311 -1.60631 32.2792 5.65487 39.5375C9.24803 43.1293 14.0389 45 18.8298 45C23.6207 45 28.3367 43.2041 32.0047 39.5375C39.0413 32.5036 39.191 21.1297 32.5287 13.7965L33.5767 12.7489L38.5922 13.7217C38.667 13.7217 38.667 13.7217 38.7419 13.7217C38.9664 13.7217 39.1162 13.6469 39.2659 13.4972L45.0299 7.7354C45.1796 7.58574 45.2545 7.28643 45.1796 7.06194ZM30.9567 38.4151C24.2944 45.0748 13.44 45.0748 6.77773 38.4151C0.115413 31.7554 0.115413 20.9052 6.77773 14.2455C10.1463 10.8782 14.488 9.23197 18.8298 9.23197C22.9469 9.23197 27.0641 10.7285 30.3578 13.7217L27.8127 16.2659C22.4978 11.5517 14.3383 11.7013 9.32288 16.7897C4.08286 22.0276 4.08286 30.6329 9.32288 35.8709C11.9429 38.4899 15.3863 39.8368 18.8298 39.8368C22.2732 39.8368 25.7167 38.4899 28.3367 35.8709C33.427 30.7826 33.5767 22.6263 28.8607 17.3883L31.4058 14.8441C37.5442 21.5038 37.3944 31.9798 30.9567 38.4151ZM17.0332 28.1636C18.0064 29.1364 19.6532 29.1364 20.6264 28.1636C21.4498 27.3405 21.5995 26.1432 21.0755 25.1704L24.2195 22.0276C26.3904 24.7215 26.2407 28.6874 23.6955 31.2316C21.0007 33.9254 16.6589 33.9254 13.964 31.2316C12.6915 29.9595 11.9429 28.1636 11.9429 26.3677C11.9429 24.497 12.6915 22.7759 13.964 21.5038C15.2366 20.2318 17.0332 19.4835 18.8298 19.4835C20.4018 19.4835 21.8989 20.0073 23.1715 20.98L20.0275 24.1228C19.0544 23.599 17.8566 23.7487 17.0332 24.5718C16.0601 25.5446 16.0601 27.1908 17.0332 28.1636ZM18.8298 17.9869C16.5841 17.9869 14.488 18.8848 12.916 20.4562C11.344 22.0276 10.4457 24.1228 10.4457 26.3677C10.4457 28.6126 11.344 30.7078 12.916 32.2792C14.5629 33.9254 16.7338 34.7485 18.8298 34.7485C21.0007 34.7485 23.0967 33.9254 24.7435 32.2792C27.8127 29.2112 28.0373 24.2725 25.2675 20.98L27.8127 18.4359C31.9298 23.1501 31.7801 30.3336 27.2887 34.8233C22.6475 39.4627 15.0121 39.4627 10.296 34.8233C5.65487 30.184 5.65487 22.5514 10.296 17.8372C12.6166 15.5176 15.6858 14.3203 18.7549 14.3203C21.5995 14.3203 24.4441 15.2931 26.6898 17.3134L24.2195 19.9324C22.7224 18.6604 20.8509 17.9869 18.8298 17.9869ZM38.4424 12.2251L34.7744 11.4768L37.3944 8.85783C37.6939 8.55851 37.6939 8.10954 37.3944 7.81023C37.095 7.51091 36.6459 7.51091 36.3464 7.81023L33.7264 10.4292L32.9778 6.76263L37.4693 2.27292L38.2927 6.31366C38.3676 6.61297 38.5922 6.83746 38.8916 6.91229L42.9339 7.7354L38.4424 12.2251Z" fill="#D80758"/>
</svg>
