<svg width="16" height="16" viewBox="0 0 16 16" fill="none" xmlns="http://www.w3.org/2000/svg">
<path d="M3.71392 5.25708C3.52292 3.99908 4.40992 2.86908 5.76492 2.45508C6.00537 2.38156 6.26481 2.40249 6.49038 2.5136C6.71594 2.62471 6.89065 2.81764 6.97892 3.05308L7.41392 4.21308C7.48394 4.39969 7.49661 4.60298 7.45028 4.79684C7.40395 4.9907 7.30075 5.16629 7.15392 5.30108L5.85992 6.48608C5.79613 6.54461 5.74861 6.61868 5.72197 6.70105C5.69533 6.78342 5.69049 6.87128 5.70792 6.95608L5.71992 7.00808L5.75092 7.13808C5.91184 7.76973 6.15704 8.37684 6.47992 8.94308C6.83163 9.54478 7.2681 10.0927 7.77592 10.5701L7.81592 10.6061C7.88052 10.6634 7.95887 10.703 8.04334 10.7211C8.12782 10.7392 8.21552 10.735 8.29792 10.7091L9.97092 10.1821C10.161 10.1224 10.3647 10.1209 10.5557 10.1777C10.7467 10.2345 10.9164 10.3471 11.0429 10.5011L11.8349 11.4621C12.1649 11.8621 12.1249 12.4501 11.7459 12.8031C10.7089 13.7701 9.28292 13.9681 8.29092 13.1711C7.07494 12.1902 6.04987 10.994 5.26692 9.64208C4.47761 8.29122 3.95138 6.80351 3.71392 5.25708ZM6.75692 7.02208L7.82892 6.03808C8.12275 5.76862 8.32935 5.41748 8.42218 5.02976C8.51502 4.64203 8.48985 4.2354 8.34992 3.86208L7.91592 2.70208C7.73826 2.22833 7.38665 1.84014 6.93273 1.61662C6.47882 1.3931 5.95675 1.35106 5.47292 1.49908C3.78992 2.01408 2.43892 3.52308 2.72492 5.40808C2.92492 6.72408 3.38592 8.39808 4.40292 10.1461C5.24763 11.6038 6.35338 12.8936 7.66492 13.9511C9.15292 15.1461 11.1389 14.7381 12.4289 13.5361C12.798 13.1924 13.0221 12.7208 13.0553 12.2176C13.0886 11.7143 12.9286 11.2174 12.6079 10.8281L11.8159 9.86608C11.5626 9.55856 11.2231 9.33373 10.8411 9.22041C10.4591 9.1071 10.052 9.11046 9.67192 9.23008L8.28292 9.66708C7.92429 9.29731 7.61015 8.88686 7.34692 8.44408C7.09264 7.99644 6.89448 7.51918 6.75692 7.02308V7.02208Z" fill="#01031B"/>
</svg>
