<svg width="24" height="24" viewBox="0 0 24 24" fill="none" xmlns="http://www.w3.org/2000/svg">
<path d="M9.93097 22.1538C9.93097 22.519 9.83389 22.8759 9.65202 23.1795C9.47015 23.4831 9.21165 23.7197 8.90921 23.8595C8.60677 23.9992 8.27397 24.0358 7.9529 23.9645C7.63183 23.8933 7.33691 23.7175 7.10543 23.4593C6.87395 23.2011 6.71631 22.8721 6.65245 22.514C6.58858 22.1559 6.62136 21.7847 6.74664 21.4474C6.87191 21.11 7.08406 20.8217 7.35625 20.6188C7.62844 20.416 7.94845 20.3077 8.27581 20.3077C8.71478 20.3077 9.13578 20.5022 9.44618 20.8484C9.75659 21.1946 9.93097 21.6642 9.93097 22.1538ZM19.0344 20.3077C18.707 20.3077 18.387 20.416 18.1148 20.6188C17.8426 20.8217 17.6305 21.11 17.5052 21.4474C17.3799 21.7847 17.3471 22.1559 17.411 22.514C17.4749 22.8721 17.6325 23.2011 17.864 23.4593C18.0955 23.7175 18.3904 23.8933 18.7114 23.9645C19.0325 24.0358 19.3653 23.9992 19.6678 23.8595C19.9702 23.7197 20.2287 23.4831 20.4106 23.1795C20.5924 22.8759 20.6895 22.519 20.6895 22.1538C20.6895 21.6642 20.5151 21.1946 20.2047 20.8484C19.8943 20.5022 19.4733 20.3077 19.0344 20.3077ZM23.9698 5.78538L21.3174 16.4331C21.1716 17.0147 20.8597 17.5275 20.429 17.8935C19.9983 18.2596 19.4724 18.459 18.9309 18.4615H8.70615C8.16308 18.4613 7.635 18.2629 7.20243 17.8966C6.76987 17.5304 6.45657 17.0164 6.3103 16.4331L2.68136 1.84615H0.827581C0.608093 1.84615 0.397594 1.7489 0.242393 1.57579C0.0871913 1.40268 0 1.16789 0 0.923077C0 0.678262 0.0871913 0.443473 0.242393 0.270363C0.397594 0.0972525 0.608093 1.70497e-08 0.827581 1.70497e-08H3.31032C3.49125 -3.87575e-05 3.66721 0.0660595 3.81126 0.188176C3.95531 0.310293 4.0595 0.481699 4.1079 0.676154L5.08859 4.61538H23.1723C23.2998 4.61536 23.4257 4.64823 23.54 4.71144C23.6543 4.77465 23.754 4.86648 23.8312 4.97976C23.9084 5.09304 23.9611 5.2247 23.9852 5.36445C24.0092 5.5042 24.004 5.64827 23.9698 5.78538ZM22.083 6.46154H5.54893L7.90857 15.9392C7.95697 16.1337 8.06117 16.3051 8.20521 16.4272C8.34926 16.5493 8.52522 16.6154 8.70615 16.6154H18.9309C19.1118 16.6154 19.2878 16.5493 19.4318 16.4272C19.5759 16.3051 19.6801 16.1337 19.7285 15.9392L22.083 6.46154Z" fill="#1D070F"/>
</svg>
