<svg width="18" height="18" viewBox="0 0 18 18" fill="none" xmlns="http://www.w3.org/2000/svg">
<path d="M16.841 8.65008L9.34102 1.15008C9.02853 0.840148 8.60614 0.666397 8.16602 0.666749H2.33268C1.89066 0.666749 1.46673 0.842343 1.15417 1.1549C0.841611 1.46746 0.666016 1.89139 0.666016 2.33342V8.16675C0.665842 8.38668 0.709196 8.60446 0.79358 8.80756C0.877964 9.01065 1.00171 9.19503 1.15768 9.35008L8.65768 16.8501C8.97017 17.16 9.39256 17.3338 9.83268 17.3334C10.274 17.3316 10.6966 17.1547 11.0077 16.8417L16.841 11.0084C17.154 10.6973 17.3308 10.2747 17.3327 9.83342C17.3329 9.61349 17.2895 9.3957 17.2051 9.19261C17.1207 8.98952 16.997 8.80513 16.841 8.65008ZM9.83268 15.6667L2.33268 8.16675V2.33342H8.16602L15.666 9.83342M4.41602 3.16675C4.66324 3.16675 4.90492 3.24006 5.11048 3.37741C5.31604 3.51476 5.47626 3.70999 5.57087 3.93839C5.66547 4.1668 5.69023 4.41813 5.642 4.66061C5.59377 4.90309 5.47472 5.12582 5.2999 5.30063C5.12508 5.47545 4.90236 5.5945 4.65988 5.64273C4.4174 5.69096 4.16607 5.66621 3.93766 5.5716C3.70925 5.47699 3.51403 5.31677 3.37668 5.11121C3.23933 4.90565 3.16602 4.66398 3.16602 4.41675C3.16602 4.08523 3.29771 3.76729 3.53213 3.53287C3.76655 3.29844 4.0845 3.16675 4.41602 3.16675Z" fill="#042327"/>
</svg>
