<svg width="34" height="23" viewBox="0 0 34 23" fill="none" xmlns="http://www.w3.org/2000/svg">
<path d="M1.81108 0C0.823645 0 0 0.805402 0 1.78481V21.2031C0 22.1826 0.823645 23 1.81108 23H32.1889C33.1764 23 34 22.1826 34 21.2031V1.78481C34 0.805333 33.1764 0 32.1889 0H1.81108ZM2.9581 1.53318H31.0419L17.0003 12.3985L2.9581 1.53318ZM1.54532 2.37171L12.4725 10.8289L1.54532 20.4724V2.37171ZM32.4544 2.37171V20.4724L21.5272 10.8289L32.4544 2.37171ZM13.7158 11.7872L16.5291 13.9675C16.8067 14.179 17.1932 14.179 17.4707 13.9675L20.2841 11.7872L31.2589 21.4663H2.74042L13.7158 11.7872Z" fill="#1623A4"/>
</svg>
