<svg width="17" height="16" viewBox="0 0 17 16" fill="none" xmlns="http://www.w3.org/2000/svg">
<path d="M15.6558 0.385383C15.4827 0.213464 15.2655 0.0926056 15.0281 0.0360903C14.7908 -0.0204249 14.5424 -0.0104093 14.3104 0.0650364L0.919877 4.53158C0.671536 4.61027 0.452084 4.7608 0.28924 4.96414C0.126395 5.16748 0.0274628 5.41452 0.00493717 5.67405C-0.0175885 5.93358 0.0373033 6.19397 0.16268 6.42233C0.288056 6.65069 0.478293 6.83677 0.709363 6.95707L6.26509 9.70289L9.01092 15.2769C9.12128 15.4951 9.29017 15.6783 9.49868 15.806C9.70719 15.9337 9.94712 16.0008 10.1916 16H10.2832C10.545 15.9807 10.795 15.8831 11.0007 15.7199C11.2063 15.5567 11.3582 15.3354 11.4364 15.0847L15.967 1.73084C16.0479 1.50013 16.0616 1.25118 16.0065 1.01298C15.9514 0.774788 15.8298 0.557141 15.6558 0.385383ZM1.48735 5.79466L13.1754 1.89559L6.68612 8.3849L1.48735 5.79466ZM10.2557 14.5539L7.65631 9.35509L14.1456 2.86578L10.2557 14.5539Z" fill="#01031B"/>
</svg>
