<svg width="30" height="30" viewBox="0 0 30 30" fill="none" xmlns="http://www.w3.org/2000/svg">
<path d="M15 15.9375C17.0711 15.9375 18.75 14.2586 18.75 12.1875C18.75 10.1164 17.0711 8.4375 15 8.4375C12.9289 8.4375 11.25 10.1164 11.25 12.1875C11.25 14.2586 12.9289 15.9375 15 15.9375Z" stroke="#1888CD" stroke-linecap="round" stroke-linejoin="round"/>
<path d="M24.375 12.1875C24.375 20.625 15 27.1875 15 27.1875C15 27.1875 5.625 20.625 5.625 12.1875C5.625 9.7011 6.61272 7.31653 8.37087 5.55837C10.129 3.80022 12.5136 2.8125 15 2.8125C17.4864 2.8125 19.871 3.80022 21.6291 5.55837C23.3873 7.31653 24.375 9.7011 24.375 12.1875V12.1875Z" stroke="#1888CD" stroke-linecap="round" stroke-linejoin="round"/>
</svg>
