<svg width="16" height="16" viewBox="0 0 16 16" fill="none" xmlns="http://www.w3.org/2000/svg">
<path fill-rule="evenodd" clip-rule="evenodd" d="M8.00014 14.1252L8.4809 13.5835C9.02643 12.9588 9.51709 12.366 9.95366 11.8022L10.314 11.3268C11.8188 9.29934 12.5716 7.6902 12.5716 6.50087C12.5716 3.9622 10.5251 1.9043 8.00014 1.9043C5.47519 1.9043 3.42871 3.9622 3.42871 6.50087C3.42871 7.6902 4.18147 9.29934 5.68623 11.3268L6.04662 11.8022C6.66943 12.6002 7.32103 13.3746 8.00014 14.1252Z" stroke="#01031B" stroke-width="1.5" stroke-linecap="round" stroke-linejoin="round"/>
<path d="M8.00047 8.37984C9.05244 8.37984 9.90523 7.52705 9.90523 6.47507C9.90523 5.4231 9.05244 4.57031 8.00047 4.57031C6.94849 4.57031 6.0957 5.4231 6.0957 6.47507C6.0957 7.52705 6.94849 8.37984 8.00047 8.37984Z" stroke="#01031B" stroke-width="1.5" stroke-linecap="round" stroke-linejoin="round"/>
</svg>
