<svg width="45" height="46" viewBox="0 0 45 46" fill="none" xmlns="http://www.w3.org/2000/svg">
<g clip-path="url(#clip0_9464_15326)">
<path d="M41.9782 9.49541C39.9446 7.21104 37.4767 6.05273 34.6428 6.05273C32.0959 6.05273 29.9368 6.95968 28.225 8.74825C26.524 10.5254 25.6615 12.7328 25.6615 15.3092C25.6615 17.7439 26.5327 19.9135 28.2509 21.7578C29.7665 23.3849 31.6757 24.4198 33.9359 24.8416C33.5407 27.8382 30.8916 30.5506 26.0463 32.914L25.1738 33.3396L28.7511 39.9437L29.5586 39.5344C39.805 34.3406 45.0003 27.0004 45.0003 17.7177C45.0003 14.5151 43.9836 11.7488 41.9782 9.49541ZM29.5205 37.4572L27.7283 34.1488C33.118 31.3246 35.8487 27.9297 35.8487 24.0481V23.217L35.0229 23.1235C32.7989 22.8717 31.0291 22.0102 29.6126 20.4894C28.2062 18.9797 27.5225 17.2853 27.5225 15.3092C27.5225 13.1991 28.1922 11.474 29.5694 10.0349C30.9355 8.60745 32.5951 7.91355 34.6429 7.91355C36.9549 7.91355 38.8995 8.8357 40.588 10.7326C42.3049 12.6616 43.1395 14.9464 43.1395 17.7176C43.1395 21.9721 41.9414 25.8131 39.5788 29.1339C37.3244 32.3023 33.9432 35.0996 29.5205 37.4572Z" fill="white"/>
<path d="M16.7553 9.49119C14.6993 7.20964 12.221 6.05273 9.38927 6.05273C6.83991 6.05273 4.69055 6.96135 3.0012 8.75326C1.32636 10.5297 0.47707 12.7354 0.47707 15.3092C0.47707 17.7439 1.34824 19.9134 3.06624 21.7578C4.57866 23.3813 6.46497 24.4153 8.68315 24.839C8.29266 27.8379 5.66561 30.5516 0.859219 32.9154L0 33.3378L3.4882 39.9467L4.30374 39.5352C14.5966 34.3416 19.8156 27.0011 19.8156 17.7176C19.8155 14.5126 18.7857 11.7448 16.7553 9.49119ZM4.27667 37.454L2.53327 34.1507C7.88388 31.3255 10.595 27.9298 10.595 24.048V23.2187L9.77115 23.1236C7.5927 22.8723 5.84473 22.0106 4.42775 20.4893C3.02142 18.9797 2.33789 17.2852 2.33789 15.3092C2.33789 13.1964 2.99777 11.4694 4.35507 10.0299C5.6976 8.60587 7.3444 7.91355 9.38927 7.91355C11.7035 7.91355 13.6609 8.83702 15.3728 10.7369C17.1101 12.6648 17.9546 14.9483 17.9546 17.7176C17.9546 21.9714 16.7514 25.8119 14.3781 29.1323C12.114 32.2999 8.71822 35.0967 4.27667 37.454Z" fill="white"/>
</g>
<defs>
<clipPath id="clip0_9464_15326">
<rect width="45" height="45" fill="white" transform="translate(0 0.5)"/>
</clipPath>
</defs>
</svg>
