<svg width="24" height="24" viewBox="0 0 24 24" fill="none" xmlns="http://www.w3.org/2000/svg">
<path d="M11.9998 6.01974C10.6444 6.01974 9.48829 4.90345 9.48829 3.50799C9.48829 2.11253 10.6044 0.996245 11.9998 0.996245C13.3955 0.996245 14.5117 2.11253 14.5117 3.50799C14.5117 4.90345 13.3555 6.01974 11.9998 6.01974ZM11.9998 0.0393152C10.0864 0.0393152 8.4917 1.59453 8.4917 3.54793C8.4917 5.50134 10.0465 7.05615 11.9998 7.05615C13.9534 7.05615 15.5082 5.50134 15.5082 3.54793C15.5082 1.59453 13.9135 0.0393152 11.9998 0.0393152Z" fill="#1623A4"/>
<path d="M20.4919 1.0362C21.8474 1.0362 23.0036 2.15249 23.0036 3.54795C23.0036 4.94341 21.8873 6.0597 20.4919 6.0597C19.0964 6.0597 17.9801 4.94341 17.9801 3.54795C17.9801 2.15249 19.0964 1.0362 20.4919 1.0362ZM20.4919 7.01624C22.4053 7.01624 24.0001 5.46142 24.0001 3.50801C24.0001 1.55461 22.4453 -0.000205994 20.4919 -0.000205994C18.578 -0.000205994 16.9836 1.55461 16.9836 3.50801C16.9836 5.46142 18.5381 7.01624 20.4919 7.01624Z" fill="#1623A4"/>
<path d="M3.54825 14.5116C2.19269 14.5116 1.03655 13.3953 1.03655 11.9998C1.03655 10.6044 2.15283 9.48807 3.54825 9.48807C4.94352 9.48807 6.05984 10.6044 6.05984 11.9998C6.05984 13.3953 4.90366 14.5116 3.54825 14.5116ZM3.54825 8.53153C1.63463 8.53153 0.0397949 10.0863 0.0397949 12.0398C0.0397949 13.9932 1.59461 15.548 3.54825 15.548C5.50162 15.548 7.05644 13.9932 7.05644 12.0398C7.05644 10.0863 5.46192 8.53153 3.54825 8.53153Z" fill="#1623A4"/>
<path d="M14.5118 20.4915C14.5118 21.8471 13.3955 23.0033 11.9999 23.0033C10.6045 23.0033 9.48837 21.8866 9.48837 20.4915C9.48837 19.2958 10.3654 18.2989 11.4817 18.0597V20.97C11.4817 21.2492 11.721 21.4884 11.9999 21.4884C12.2792 21.4884 12.5181 21.2492 12.5181 20.97V18.0197C13.6348 18.259 14.5118 19.2558 14.5118 20.4915ZM9.52823 11.9998C9.52823 11.4814 9.68763 11.0033 9.9269 10.6442L11.5216 12.239V14.4716C10.3654 14.1924 9.52823 13.1959 9.52823 11.9998ZM3.54816 6.01973C2.1926 6.01973 1.03645 4.90344 1.03645 3.50798C1.03645 2.11252 2.15274 0.996229 3.54816 0.996229C4.94342 0.996229 6.05975 2.11252 6.05975 3.50798C6.05975 4.02638 5.9002 4.50445 5.66108 4.8635L3.94683 3.14932C3.74741 2.94963 3.42846 2.94963 3.22921 3.14932C3.0298 3.34862 3.0298 3.66733 3.22921 3.86702L4.94342 5.58119C4.50477 5.86036 4.02655 6.01973 3.54816 6.01973ZM11.9999 9.52795C13.3556 9.52795 14.5118 10.6442 14.5118 12.0397C14.5118 13.2359 13.6348 14.2323 12.5181 14.4716V12.0397C12.5181 11.9199 12.4785 11.8005 12.3587 11.6806L10.6445 9.96647C11.0033 9.64775 11.4817 9.52795 11.9999 9.52795ZM15.5083 11.9998C15.5083 10.0863 13.9535 8.49154 11.9999 8.49154C11.2027 8.49154 10.4851 8.73076 9.9269 9.16929L6.33868 5.58119C6.77737 4.98291 7.01664 4.26561 7.01664 3.50798C7.01664 1.59451 5.46182 -0.000244141 3.50814 -0.000244141C1.55481 -0.000244141 0 1.55457 0 3.50798C0 5.46138 1.55481 7.0162 3.50814 7.0162C4.30548 7.0162 5.0233 6.77736 5.5812 6.33883L9.16938 9.92654C8.73089 10.5248 8.49178 11.2425 8.49178 11.9998C8.49178 13.7539 9.80732 15.2292 11.4817 15.4684V17.0233C9.80732 17.2625 8.49178 18.7374 8.49178 20.4915C8.49178 22.4054 10.0466 23.9998 11.9999 23.9998C13.9535 23.9998 15.5083 22.4453 15.5083 20.4915C15.5083 18.7374 14.1927 17.2625 12.5181 17.0233V15.4684C14.1927 15.2292 15.5083 13.7539 15.5083 11.9998Z" fill="#1623A4"/>
<path d="M20.4919 14.5116C19.1363 14.5116 17.9801 13.3953 17.9801 11.9998C17.9801 10.6044 19.0964 9.48807 20.4919 9.48807C21.8873 9.48807 23.0036 10.6044 23.0036 11.9998C23.0036 13.3953 21.8474 14.5116 20.4919 14.5116ZM20.4919 8.53153C18.578 8.53153 16.9836 10.0863 16.9836 12.0398C16.9836 13.9932 18.5381 15.548 20.4919 15.548C22.4053 15.548 24.0001 13.9932 24.0001 12.0398C24.0001 10.0863 22.4053 8.53153 20.4919 8.53153Z" fill="#1623A4"/>
<path d="M3.54825 22.9633C2.19269 22.9633 1.03655 21.8471 1.03655 20.452C1.03655 19.0561 2.15283 17.9402 3.54825 17.9402C4.94352 17.9402 6.05984 19.0561 6.05984 20.452C6.05984 21.8471 4.90366 22.9633 3.54825 22.9633ZM3.54825 16.9833C1.63463 16.9833 0.0397949 18.5381 0.0397949 20.4915C0.0397949 22.4054 1.59461 23.9998 3.54825 23.9998C5.50162 23.9998 7.05644 22.4453 7.05644 20.4915C7.01674 18.5381 5.46192 16.9833 3.54825 16.9833Z" fill="#1623A4"/>
<path d="M20.4919 22.9633C19.1363 22.9633 17.9801 21.8471 17.9801 20.452C17.9801 19.0561 19.0964 17.9402 20.4919 17.9402C21.8873 17.9402 23.0036 19.0561 23.0036 20.452C23.0036 21.8471 21.8474 22.9633 20.4919 22.9633ZM20.4919 16.9833C18.578 16.9833 16.9836 18.5381 16.9836 20.4915C16.9836 22.4054 18.5381 23.9998 20.4919 23.9998C22.4053 23.9998 24.0001 22.4453 24.0001 20.4915C23.9602 18.5381 22.4053 16.9833 20.4919 16.9833Z" fill="#1623A4"/>
</svg>
