<svg width="33" height="32" viewBox="0 0 33 32" fill="none" xmlns="http://www.w3.org/2000/svg">
<path d="M15.8344 26.6844C14.343 26.6844 13.1722 25.515 13.1722 24.0266C13.1722 22.5382 14.343 21.3688 15.8344 21.3688C17.3253 21.3688 18.4967 22.5382 18.4967 24.0266C18.4967 25.515 17.272 26.6844 15.8344 26.6844ZM15.8344 20.0396C13.6512 20.0396 11.8408 21.847 11.8408 24.0266C11.8408 26.2062 13.6512 28.0129 15.8344 28.0129C18.0176 28.0129 19.8275 26.2062 19.8275 24.0266C19.8275 21.847 18.0176 20.0396 15.8344 20.0396Z" fill="#1888CD"/>
<path d="M9.17848 24.0266C9.17848 21.528 10.5627 19.2425 12.7992 18.1258C13.0121 18.0198 13.1721 17.8074 13.1721 17.5411V1.4346H18.4965V4.7836C18.4965 5.15583 18.816 5.47428 19.1884 5.47428H22.5435V8.1326H19.1884C18.816 8.1326 18.4965 8.45158 18.4965 8.8238V17.5949C18.4965 17.8606 18.656 18.0731 18.8694 18.1791C21.1054 19.349 22.4896 21.5814 22.4896 24.0793C22.4896 27.7473 19.5084 30.7241 15.8343 30.7241C12.1602 30.7241 9.17848 27.694 9.17848 24.0266ZM31.8082 30.6708H20.2002C22.3301 29.2358 23.7676 26.7903 23.7676 24.0266C23.7676 21.1563 22.2234 18.5513 19.7746 17.1156V9.40798H23.1286C23.5015 9.40798 23.821 9.08953 23.821 8.7173V4.73035C23.821 4.35812 23.5015 4.03967 23.1286 4.03967H19.7746V0.690676C19.7746 0.318448 19.4551 0 19.0822 0H12.4797C12.1069 0 11.7879 0.318448 11.7879 0.690676V17.0629C9.3385 18.4986 7.79429 21.1025 7.79429 23.9733C7.79429 26.7371 9.23183 29.1824 11.3617 30.6181H1.19181C0.81896 30.6181 0.5 30.9365 0.5 31.3088C0.5 31.681 0.81896 32 1.19181 32H31.8082C32.1805 32 32.5 31.681 32.5 31.3088C32.4472 30.9898 32.1271 30.6708 31.8082 30.6708Z" fill="#1888CD"/>
</svg>
