<svg width="27" height="32" viewBox="0 0 27 32" fill="none" xmlns="http://www.w3.org/2000/svg">
<path d="M25.6498 19.985C25.6498 23.1296 23.5979 25.8476 19.6018 28.1391C16.9019 29.6313 14.2019 30.4305 13.4997 30.6436C12.7981 30.4839 10.0982 29.6847 7.39821 28.1391C3.40211 25.8476 1.3497 23.1296 1.3497 19.985V3.35751H8.09984C8.47798 3.35751 8.80201 3.03772 8.80201 2.66453V1.33195H18.2521V2.66453C18.2521 3.03772 18.5761 3.35751 18.9537 3.35751H25.6498V19.985ZM26.3519 2.02493H19.6018V0.692858C19.6018 0.31967 19.2778 -0.00012207 18.9002 -0.00012207H8.09984C7.72171 -0.00012207 7.39821 0.31967 7.39821 0.692858V2.02493H0.702167C0.324036 2.02493 0 2.34472 0 2.71791V19.985C0 24.1952 3.07807 27.2331 6.75013 29.3115C9.98996 31.1235 13.1757 31.9228 13.338 31.9761C13.4462 31.9761 13.5538 32.0295 13.662 31.9761C13.7702 31.9228 17.01 31.1769 20.2499 29.3115C23.9219 27.2331 27 24.1952 27 19.985V2.66453C27 2.29134 26.676 2.02493 26.3519 2.02493Z" fill="white"/>
<path d="M22.5182 8.68708V19.879C22.5182 24.7817 14.6883 27.0203 13.4998 27.3396C12.3124 27.0203 4.48192 24.8351 4.48192 19.879V8.68708H8.09989C8.47802 8.68708 8.80205 8.36729 8.80205 7.9941V6.66203H18.2521V7.9941C18.2521 8.36729 18.5762 8.68708 18.9538 8.68708H22.5182ZM8.09989 5.32945C7.72176 5.32945 7.39825 5.64927 7.39825 6.02246V7.3545H3.77975C3.40215 7.3545 3.07812 7.67432 3.07812 8.0475V19.9319C3.07812 22.5965 4.86005 24.9948 8.31626 26.8068C10.7998 28.1394 13.2298 28.6722 13.338 28.7256C13.4462 28.7256 13.5539 28.7256 13.6621 28.7256C13.7702 28.7256 16.1997 28.1394 18.6844 26.8068C22.0859 24.9948 23.922 22.5965 23.922 19.9319V7.9941C23.922 7.62092 23.5979 7.30112 23.2198 7.30112H19.6018V5.96906C19.6018 5.59587 19.2778 5.27608 18.8997 5.27608H8.09989V5.32945Z" fill="white"/>
<path d="M14.2018 11.9909C14.2018 11.6177 13.8778 11.2979 13.4997 11.2979C13.1221 11.2979 12.7981 11.6177 12.7981 11.9909V17.0004H7.72166C7.34406 17.0004 7.02002 17.3202 7.02002 17.6934C7.02002 18.0666 7.34406 18.3859 7.72166 18.3859H12.7981V23.3959C12.7981 23.769 13.1221 24.0889 13.4997 24.0889C13.8778 24.0889 14.2018 23.769 14.2018 23.3959V18.3859H19.2777C19.6558 18.3859 19.9799 18.0666 19.9799 17.6934C19.9799 17.3202 19.6558 17.0004 19.2777 17.0004H14.2018V11.9909Z" fill="white"/>
</svg>
