<svg width="32" height="32" viewBox="0 0 32 32" fill="none" xmlns="http://www.w3.org/2000/svg">
<path d="M25.3337 17.3334C25.0137 17.3334 6.98687 17.3334 6.66683 17.3334C3.7336 17.3334 1.33357 14.9335 1.33357 12.0004C1.33357 10.4002 2.02708 8.90692 3.25327 7.89394C3.46698 7.73366 3.57384 7.46704 3.46698 7.20044C2.66715 4.21386 4.90689 1.33362 8.00041 1.33362C9.06737 1.33362 10.0269 1.65364 10.8268 2.2937L10.8802 2.34711C10.9336 2.40054 12.3201 3.30721 12.0001 5.92034C11.9472 6.29379 12.2138 6.6138 12.5867 6.66723C12.9602 6.72013 13.2802 6.45407 13.3336 6.08009C13.6003 4.0007 12.9602 2.66714 12.3735 1.97366C16.2669 0.267191 20.8003 2.2408 22.2402 6.24036C22.3471 6.50696 22.5602 6.66723 22.8803 6.66723H25.3337C28.2669 6.66723 30.6669 9.06667 30.6669 12.0004C30.6669 14.9335 28.2669 17.3334 25.3337 17.3334ZM19.6804 18.6665V23.6801C19.6804 25.7066 18.0268 27.3596 16.0003 27.3596C13.9737 27.3596 12.3201 25.7066 12.3201 23.6801V18.6665H19.6804ZM24.0001 22.6666C24.0001 27.0935 20.4268 30.6662 16.0003 30.6662C11.5737 30.6662 8.00041 27.0935 8.00041 22.6666V18.6665H10.9865V23.6801C10.9865 26.4535 13.2268 28.6931 16.0003 28.6931C18.7737 28.6931 21.014 26.4535 21.014 23.6801V18.6665H24.0001V22.6666ZM25.3337 5.33369H23.3601C21.3869 0.640646 15.84 -1.38585 11.3071 1.01358C10.3465 0.374048 9.1737 0.000598907 8.00041 0.000598907C4.26682 0.000598907 1.38701 3.41354 2.13341 7.14703C0.800361 8.42714 0 10.1336 0 12.0004C0 15.6799 2.98667 18.6665 6.66683 18.6665V22.6666C6.66683 27.7865 10.8802 31.9998 16.0003 31.9998C21.1203 31.9998 25.3337 27.7865 25.3337 22.6666V18.6665C29.0139 18.6665 32 15.6799 32 12.0004C32 8.32029 29.0139 5.33369 25.3337 5.33369Z" fill="white"/>
</svg>
