<svg width="33" height="32" viewBox="0 0 33 32" fill="none" xmlns="http://www.w3.org/2000/svg">
<path d="M16.4998 30.6664C8.39356 30.6664 1.83306 24.107 1.83306 15.9997C1.83306 7.89354 8.39356 1.33306 16.4998 1.33306C24.6065 1.33306 31.1664 7.89354 31.1664 15.9997C31.1664 24.107 24.6065 30.6664 16.4998 30.6664ZM16.4998 -3.82261e-07C7.64663 -3.82261e-07 0.5 7.14661 0.5 15.9997C0.5 24.8534 7.64663 32 16.4998 32C25.3534 32 32.5 24.8534 32.5 15.9997C32.5 7.14661 25.3534 -3.82261e-07 16.4998 -3.82261e-07Z" fill="#1888CD"/>
<path d="M16.4997 27.3601C10.2598 27.3601 5.1397 22.2934 5.1397 16.0001C5.1397 9.70671 10.2063 4.64008 16.4997 4.64008C22.793 4.64008 27.8597 9.70671 27.8597 16.0001C27.8597 22.2934 22.7401 27.3601 16.4997 27.3601ZM16.4997 3.36046C9.51336 3.36046 3.80664 9.06665 3.80664 16.0535C3.80664 23.0404 9.51336 28.7471 16.4997 28.7471C23.4865 28.7471 29.1932 23.0404 29.1932 16.0535C29.1932 9.01375 23.4865 3.36046 16.4997 3.36046Z" fill="#1888CD"/>
<path d="M16.4998 18.0266C15.3799 18.0266 14.4732 17.1199 14.4732 15.9995C14.4732 14.8797 15.3799 13.973 16.4998 13.973C17.6202 13.973 18.5268 14.8797 18.5268 15.9995C18.5268 17.1199 17.6202 18.0266 16.4998 18.0266ZM16.4998 12.6928C14.6864 12.6928 13.1396 14.1867 13.1396 16.053C13.1396 17.9198 14.6335 19.4131 16.4998 19.4131C18.3666 19.4131 19.8599 17.9198 19.8599 16.053C19.8599 14.1867 18.3137 12.6928 16.4998 12.6928Z" fill="#1888CD"/>
<path d="M16.5002 7.99939C16.8736 7.99939 17.1937 8.31942 17.1937 8.69288C17.1937 9.06582 16.8736 9.33296 16.5002 9.33296C16.1272 9.33296 15.8067 9.01293 15.8067 8.63946C15.8067 8.266 16.1272 7.99939 16.5002 7.99939ZM16.5002 10.666C17.6206 10.666 18.5273 9.75933 18.5273 8.63946C18.5273 7.5196 17.6206 6.66633 16.5002 6.66633C15.3803 6.66633 14.4736 7.57302 14.4736 8.69288C14.4736 9.81274 15.3803 10.666 16.5002 10.666Z" fill="#1888CD"/>
<path d="M16.5002 24.0002C16.1272 24.0002 15.8067 23.6802 15.8067 23.3067C15.8067 22.9333 16.1272 22.6132 16.5002 22.6132C16.8736 22.6132 17.1937 22.9333 17.1937 23.3067C17.1937 23.6802 16.8736 24.0002 16.5002 24.0002ZM16.5002 21.3336C15.3803 21.3336 14.4736 22.2403 14.4736 23.3602C14.4736 24.48 15.3803 25.3867 16.5002 25.3867C17.6206 25.3867 18.5273 24.48 18.5273 23.3602C18.5273 22.2403 17.6206 21.3336 16.5002 21.3336Z" fill="#1888CD"/>
<path d="M21.1935 10.3468C21.4601 10.0802 21.8864 10.0802 22.153 10.3468C22.4197 10.6134 22.4197 11.0403 22.153 11.3069C21.8864 11.5736 21.4601 11.5736 21.1935 11.3069C20.9803 11.0403 20.9803 10.6134 21.1935 10.3468ZM23.1132 12.2136C23.913 11.4138 23.913 10.1871 23.1132 9.3867C22.3133 8.58688 21.0866 8.58688 20.2868 9.3867C19.4864 10.1871 19.4864 11.4138 20.2868 12.2136C21.0332 13.0134 22.3133 13.0134 23.1132 12.2136Z" fill="#1888CD"/>
<path d="M11.8067 21.6525C11.5401 21.9197 11.1132 21.9197 10.8466 21.6525C10.58 21.3859 10.58 20.9595 10.8466 20.6929C11.1132 20.4263 11.5401 20.4263 11.8067 20.6929C12.0199 20.9595 12.0199 21.3859 11.8067 21.6525ZM9.88649 19.7862C9.08666 20.5861 9.08666 21.8128 9.88649 22.6126C10.6868 23.413 11.9136 23.413 12.7134 22.6126C13.5132 21.8128 13.5132 20.5861 12.7134 19.7862C11.9665 18.9859 10.6868 18.9859 9.88649 19.7862Z" fill="#1888CD"/>
<path d="M23.86 16.6929C23.4866 16.6929 23.1666 16.3729 23.1666 15.9994C23.1666 15.6265 23.4866 15.3065 23.86 15.3065C24.2335 15.3065 24.553 15.6265 24.553 15.9994C24.553 16.3729 24.1796 16.6929 23.86 16.6929ZM23.86 14.0263C22.7402 14.0263 21.8335 14.933 21.8335 16.0529C21.8335 17.1733 22.7402 18.08 23.86 18.08C24.9799 18.08 25.8866 17.1733 25.8866 16.0529C25.8866 14.933 24.9265 14.0263 23.86 14.0263Z" fill="#1888CD"/>
<path d="M9.19257 16.6938C8.81963 16.6938 8.49959 16.3737 8.49959 16.0003C8.49959 15.6273 8.81963 15.3073 9.19257 15.3073C9.56603 15.3073 9.88609 15.6273 9.88609 16.0003C9.88609 16.3737 9.51313 16.6938 9.19257 16.6938ZM11.1662 16.0003C11.1662 14.8804 10.2595 13.9737 9.13967 13.9737C8.0198 13.9737 7.16602 14.8804 7.16602 16.0003C7.16602 17.1207 8.0727 18.0273 9.19257 18.0273C10.313 18.0273 11.1662 17.1207 11.1662 16.0003Z" fill="#1888CD"/>
<path d="M22.153 21.6525C21.8864 21.9197 21.4601 21.9197 21.1935 21.6525C20.9269 21.3859 20.9269 20.9595 21.1935 20.6929C21.4601 20.4263 21.8864 20.4263 22.153 20.6929C22.4197 20.9595 22.4197 21.3859 22.153 21.6525ZM20.2868 19.7862C19.4864 20.5861 19.4864 21.8128 20.2868 22.6126C21.0866 23.413 22.3133 23.413 23.1132 22.6126C23.913 21.8128 23.913 20.5861 23.1132 19.7862C22.3133 18.9859 21.0332 18.9859 20.2868 19.7862Z" fill="#1888CD"/>
<path d="M10.8466 10.3468C11.1132 10.0802 11.5401 10.0802 11.8067 10.3468C12.0733 10.6134 12.0733 11.0403 11.8067 11.3069C11.5401 11.5736 11.1132 11.5736 10.8466 11.3069C10.58 11.0403 10.58 10.6134 10.8466 10.3468ZM12.7134 12.2136C13.5132 11.4138 13.5132 10.1871 12.7134 9.3867C11.9136 8.58688 10.6868 8.58688 9.88649 9.3867C9.08666 10.1871 9.08666 11.4138 9.88649 12.2136C10.6868 13.0134 11.9665 13.0134 12.7134 12.2136Z" fill="#1888CD"/>
</svg>
