<svg width="32" height="32" viewBox="0 0 32 32" fill="none" xmlns="http://www.w3.org/2000/svg">
<path d="M30.6179 17.9668H27.6412C27.3223 17.9668 27.0565 18.1794 27.0033 18.4983C26.7375 19.7209 26.2591 20.9435 25.5681 22.0066C25.4086 22.2724 25.4618 22.5914 25.6744 22.8571L27.7475 24.9302L24.9302 27.7475L22.8571 25.6744C22.6445 25.4618 22.2724 25.4086 22.0066 25.5681C20.9435 26.2591 19.7209 26.7375 18.4983 27.0033C18.1794 27.0565 17.9668 27.3223 17.9668 27.6412V30.5648H13.9801V27.588C13.9801 27.2691 13.7674 27.0033 13.4485 26.9502C12.2259 26.6844 11.0033 26.206 9.9402 25.515C9.67442 25.3555 9.35548 25.4086 9.0897 25.6213L7.01661 27.6944L4.19934 24.8771L6.27243 22.804C6.48505 22.5914 6.53821 22.2193 6.37874 21.9535C5.68771 20.8904 5.2093 19.6678 4.94352 18.4452C4.89037 18.1262 4.62458 17.9136 4.30565 17.9136H1.38206V13.9269H4.3588C4.67774 13.9269 4.94352 13.7143 4.99668 13.3953C5.26246 12.1728 5.74086 10.9502 6.43189 9.88704C6.59136 9.62126 6.53821 9.30233 6.32558 9.03654L4.25249 6.96346L7.06977 4.14618L9.14286 6.21927C9.35548 6.43189 9.72757 6.48505 9.99335 6.32558C11.0565 5.63455 12.2791 5.15615 13.5017 4.89037C13.8206 4.83721 14.0332 4.57143 14.0332 4.25249V1.32891H18.0199V4.30565C18.0199 4.62459 18.2326 4.89037 18.5515 4.94352C19.7741 5.2093 20.9967 5.68771 22.0598 6.37874C22.3256 6.53821 22.6445 6.48505 22.9103 6.27243L24.9834 4.19934L27.8007 7.01661L25.7276 9.0897C25.5149 9.30233 25.4618 9.67442 25.6213 9.9402C26.3123 11.0033 26.7907 12.2259 27.0565 13.4485C27.1096 13.7674 27.3754 13.9801 27.6944 13.9801H30.6179V17.9668ZM31.309 12.6512H28.2259C27.9601 11.6412 27.5349 10.6312 27.0033 9.72758L29.1827 7.54817C29.4485 7.28239 29.4485 6.85714 29.1827 6.59136L25.4086 2.81728C25.1429 2.5515 24.7176 2.5515 24.4518 2.81728L22.2724 4.99668C21.3688 4.46512 20.3588 4.03987 19.3488 3.77409V0.691031C19.3488 0.318937 19.0299 0 18.6578 0H13.3422C12.9701 0 12.6512 0.318937 12.6512 0.691031V3.77409C11.6412 4.03987 10.6312 4.46512 9.72757 4.99668L7.54817 2.81728C7.28239 2.5515 6.85714 2.5515 6.59136 2.81728L2.81728 6.59136C2.5515 6.85714 2.5515 7.28239 2.81728 7.54817L4.99668 9.72758C4.46512 10.6312 4.03987 11.6412 3.77409 12.6512H0.69103C0.318937 12.6512 0 12.9701 0 13.3422V18.6578C0 19.0299 0.318937 19.3488 0.69103 19.3488H3.77409C4.03987 20.3588 4.46512 21.3688 4.99668 22.2724L2.81728 24.4518C2.5515 24.7176 2.5515 25.1429 2.81728 25.4086L6.59136 29.1827C6.85714 29.4485 7.28239 29.4485 7.54817 29.1827L9.72757 27.0033C10.6312 27.5349 11.6412 27.9601 12.6512 28.2259V31.309C12.6512 31.6811 12.9701 32 13.3422 32H18.6578C19.0299 32 19.3488 31.6811 19.3488 31.309V28.2259C20.3588 27.9601 21.3688 27.5349 22.2724 27.0033L24.4518 29.1827C24.7176 29.4485 25.1429 29.4485 25.4086 29.1827L29.1827 25.4086C29.4485 25.1429 29.4485 24.7176 29.1827 24.4518L27.0033 22.2724C27.5349 21.3688 27.9601 20.3588 28.2259 19.3488H31.309C31.6811 19.3488 32 19.0299 32 18.6578V13.3422C31.9468 12.9169 31.6279 12.6512 31.309 12.6512Z" fill="white"/>
<path d="M16.0001 23.2822C11.9603 23.2822 8.6646 19.9866 8.6646 15.9467C8.6646 11.9068 11.9603 8.61115 16.0001 8.61115C20.04 8.61115 23.3357 11.9068 23.3357 15.9467C23.3357 19.9866 20.04 23.2822 16.0001 23.2822ZM16.0001 7.3354C11.2161 7.3354 7.33569 11.2158 7.33569 15.9999C7.33569 20.7839 11.2161 24.6643 16.0001 24.6643C20.7842 24.6643 24.6646 20.7839 24.6646 15.9999C24.6646 11.1626 20.7842 7.3354 16.0001 7.3354Z" fill="white"/>
<path d="M16.0002 15.9465C14.8839 15.9465 13.9803 15.0428 13.9803 13.9265C13.9803 12.8103 14.8839 11.9066 16.0002 11.9066C17.1165 11.9066 18.0201 12.8103 18.0201 13.9265C18.0201 15.0428 17.1165 15.9465 16.0002 15.9465ZM16.0002 10.6309C14.1929 10.6309 12.6514 12.1192 12.6514 13.9797C12.6514 15.5744 13.8208 16.9033 15.3092 17.2222V21.2621C15.3092 21.6342 15.6281 21.9531 16.0002 21.9531C16.3723 21.9531 16.6912 21.6342 16.6912 21.2621V17.2222C18.1796 16.9033 19.349 15.5744 19.349 13.9797C19.349 12.1192 17.8075 10.6309 16.0002 10.6309Z" fill="white"/>
</svg>
