<svg width="32" height="32" viewBox="0 0 32 32" fill="none" xmlns="http://www.w3.org/2000/svg">
<path d="M25.3337 17.3337C25.0137 17.3337 6.98687 17.3337 6.66683 17.3337C3.7336 17.3337 1.33357 14.9337 1.33357 12.0006C1.33357 10.4005 2.02708 8.90717 3.25327 7.89419C3.46698 7.73391 3.57384 7.46729 3.46698 7.20068C2.66715 4.2141 4.90689 1.33386 8.00041 1.33386C9.06737 1.33386 10.0269 1.65389 10.8268 2.29395L10.8802 2.34736C10.9336 2.40079 12.3201 3.30746 12.0001 5.92059C11.9472 6.29404 12.2138 6.61405 12.5867 6.66747C12.9602 6.72037 13.2802 6.45432 13.3336 6.08034C13.6003 4.00094 12.9602 2.66738 12.3735 1.9739C16.2669 0.267435 20.8003 2.24104 22.2402 6.2406C22.3471 6.50721 22.5602 6.66747 22.8803 6.66747H25.3337C28.2669 6.66747 30.6669 9.06691 30.6669 12.0006C30.6669 14.9337 28.2669 17.3337 25.3337 17.3337ZM19.6804 18.6667V23.6803C19.6804 25.7068 18.0268 27.3598 16.0003 27.3598C13.9737 27.3598 12.3201 25.7068 12.3201 23.6803V18.6667H19.6804ZM24.0001 22.6668C24.0001 27.0938 20.4268 30.6665 16.0003 30.6665C11.5737 30.6665 8.00041 27.0938 8.00041 22.6668V18.6667H10.9865V23.6803C10.9865 26.4537 13.2268 28.6934 16.0003 28.6934C18.7737 28.6934 21.014 26.4537 21.014 23.6803V18.6667H24.0001V22.6668ZM25.3337 5.33394H23.3601C21.3869 0.64089 15.84 -1.3856 11.3071 1.01382C10.3465 0.374292 9.1737 0.000843048 8.00041 0.000843048C4.26682 0.000843048 1.38701 3.41378 2.13341 7.14727C0.800361 8.42738 0 10.1339 0 12.0006C0 15.6801 2.98667 18.6667 6.66683 18.6667V22.6668C6.66683 27.7867 10.8802 32 16.0003 32C21.1203 32 25.3337 27.7867 25.3337 22.6668V18.6667C29.0139 18.6667 32 15.6801 32 12.0006C32 8.32053 29.0139 5.33394 25.3337 5.33394Z" fill="#1888CD"/>
</svg>
